<?xml version="1.0" encoding="utf-8" ?>
<svg baseProfile="full" height="450.0mm" version="1.1" viewBox="0 0 450.0 450.0" width="450.0mm" xmlns="http://www.w3.org/2000/svg" xmlns:ev="http://www.w3.org/2001/xml-events" xmlns:xlink="http://www.w3.org/1999/xlink"><defs /><rect fill="rgb(0,0,0)" height="100%" width="100%" x="0" y="0" /><g style="text-anchor:middle;fill:rgb(255,255,255);font-family:Arial;font-size:22"><text x="75.0" y="86.0">T</text><text x="96.4285714286" y="86.0">H</text><text x="117.857142857" y="86.0">E</text><text x="139.285714286" y="86.0">T</text><text x="160.714285714" y="86.0">G</text><text x="182.142857143" y="86.0">T</text><text x="203.571428571" y="86.0">I</text><text x="225.0" y="86.0">M</text><text x="246.428571429" y="86.0">E</text><text x="267.857142857" y="86.0">P</text><text x="289.285714286" y="86.0">L</text><text x="310.714285714" y="86.0">I</text><text x="332.142857143" y="86.0">S</text><text x="353.571428571" y="86.0">G</text><text x="375.0" y="86.0">I</text><text x="75.0" y="109.076923077">Z</text><text x="96.4285714286" y="109.076923077">E</text><text x="117.857142857" y="109.076923077">A</text><text x="139.285714286" y="109.076923077">B</text><text x="160.714285714" y="109.076923077">O</text><text x="182.142857143" y="109.076923077">U</text><text x="203.571428571" y="109.076923077">T</text><text x="225.0" y="109.076923077">X</text><text x="246.428571429" y="109.076923077">L</text><text x="267.857142857" y="109.076923077">K</text><text x="289.285714286" y="109.076923077">T</text><text x="310.714285714" y="109.076923077">E</text><text x="332.142857143" y="109.076923077">N</text><text x="353.571428571" y="109.076923077">Q</text><text x="375.0" y="109.076923077">P</text><text x="75.0" y="132.153846154">F</text><text x="96.4285714286" y="132.153846154">I</text><text x="117.857142857" y="132.153846154">F</text><text x="139.285714286" y="132.153846154">T</text><text x="160.714285714" y="132.153846154">E</text><text x="182.142857143" y="132.153846154">E</text><text x="203.571428571" y="132.153846154">N</text><text x="225.0" y="132.153846154">W</text><text x="246.428571429" y="132.153846154">J</text><text x="267.857142857" y="132.153846154">F</text><text x="289.285714286" y="132.153846154">O</text><text x="310.714285714" y="132.153846154">R</text><text x="332.142857143" y="132.153846154">T</text><text x="353.571428571" y="132.153846154">Y</text><text x="375.0" y="132.153846154">B</text><text x="75.0" y="155.230769231">T</text><text x="96.4285714286" y="155.230769231">W</text><text x="117.857142857" y="155.230769231">E</text><text x="139.285714286" y="155.230769231">N</text><text x="160.714285714" y="155.230769231">T</text><text x="182.142857143" y="155.230769231">Y</text><text x="203.571428571" y="155.230769231">H</text><text x="225.0" y="155.230769231">T</text><text x="246.428571429" y="155.230769231">H</text><text x="267.857142857" y="155.230769231">I</text><text x="289.285714286" y="155.230769231">R</text><text x="310.714285714" y="155.230769231">T</text><text x="332.142857143" y="155.230769231">Y</text><text x="353.571428571" y="155.230769231">A</text><text x="375.0" y="155.230769231">C</text><text x="75.0" y="178.307692308">F</text><text x="96.4285714286" y="178.307692308">I</text><text x="117.857142857" y="178.307692308">F</text><text x="139.285714286" y="178.307692308">T</text><text x="160.714285714" y="178.307692308">Y</text><text x="182.142857143" y="178.307692308">Z</text><text x="203.571428571" y="178.307692308">X</text><text x="225.0" y="178.307692308">F</text><text x="246.428571429" y="178.307692308">I</text><text x="267.857142857" y="178.307692308">V</text><text x="289.285714286" y="178.307692308">E</text><text x="310.714285714" y="178.307692308">E</text><text x="332.142857143" y="178.307692308">H</text><text x="353.571428571" y="178.307692308">J</text><text x="375.0" y="178.307692308">M</text><text x="75.0" y="201.384615385">D</text><text x="96.4285714286" y="201.384615385">M</text><text x="117.857142857" y="201.384615385">I</text><text x="139.285714286" y="201.384615385">N</text><text x="160.714285714" y="201.384615385">U</text><text x="182.142857143" y="201.384615385">T</text><text x="203.571428571" y="201.384615385">E</text><text x="225.0" y="201.384615385">S</text><text x="246.428571429" y="201.384615385">V</text><text x="267.857142857" y="201.384615385">N</text><text x="289.285714286" y="201.384615385">P</text><text x="310.714285714" y="201.384615385">A</text><text x="332.142857143" y="201.384615385">S</text><text x="353.571428571" y="201.384615385">T</text><text x="375.0" y="201.384615385">S</text><text x="75.0" y="224.461538462">O</text><text x="96.4285714286" y="224.461538462">N</text><text x="117.857142857" y="224.461538462">E</text><text x="139.285714286" y="224.461538462">I</text><text x="160.714285714" y="224.461538462">T</text><text x="182.142857143" y="224.461538462">W</text><text x="203.571428571" y="224.461538462">O</text><text x="225.0" y="224.461538462">Y</text><text x="246.428571429" y="224.461538462">M</text><text x="267.857142857" y="224.461538462">T</text><text x="289.285714286" y="224.461538462">H</text><text x="310.714285714" y="224.461538462">R</text><text x="332.142857143" y="224.461538462">E</text><text x="353.571428571" y="224.461538462">E</text><text x="375.0" y="224.461538462">T</text><text x="75.0" y="247.538461538">F</text><text x="96.4285714286" y="247.538461538">O</text><text x="117.857142857" y="247.538461538">U</text><text x="139.285714286" y="247.538461538">R</text><text x="160.714285714" y="247.538461538">F</text><text x="182.142857143" y="247.538461538">I</text><text x="203.571428571" y="247.538461538">V</text><text x="225.0" y="247.538461538">E</text><text x="246.428571429" y="247.538461538">X</text><text x="267.857142857" y="247.538461538">E</text><text x="289.285714286" y="247.538461538">L</text><text x="310.714285714" y="247.538461538">E</text><text x="332.142857143" y="247.538461538">V</text><text x="353.571428571" y="247.538461538">E</text><text x="375.0" y="247.538461538">N</text><text x="75.0" y="270.615384615">U</text><text x="96.4285714286" y="270.615384615">E</text><text x="117.857142857" y="270.615384615">I</text><text x="139.285714286" y="270.615384615">G</text><text x="160.714285714" y="270.615384615">H</text><text x="182.142857143" y="270.615384615">T</text><text x="203.571428571" y="270.615384615">O</text><text x="225.0" y="270.615384615">N</text><text x="246.428571429" y="270.615384615">I</text><text x="267.857142857" y="270.615384615">N</text><text x="289.285714286" y="270.615384615">E</text><text x="310.714285714" y="270.615384615">P</text><text x="332.142857143" y="270.615384615">T</text><text x="353.571428571" y="270.615384615">E</text><text x="375.0" y="270.615384615">N</text><text x="75.0" y="293.692307692">S</text><text x="96.4285714286" y="293.692307692">I</text><text x="117.857142857" y="293.692307692">X</text><text x="139.285714286" y="293.692307692">B</text><text x="160.714285714" y="293.692307692">S</text><text x="182.142857143" y="293.692307692">E</text><text x="203.571428571" y="293.692307692">V</text><text x="225.0" y="293.692307692">E</text><text x="246.428571429" y="293.692307692">N</text><text x="267.857142857" y="293.692307692">T</text><text x="289.285714286" y="293.692307692">W</text><text x="310.714285714" y="293.692307692">E</text><text x="332.142857143" y="293.692307692">L</text><text x="353.571428571" y="293.692307692">V</text><text x="375.0" y="293.692307692">E</text><text x="75.0" y="316.769230769">K</text><text x="96.4285714286" y="316.769230769">O</text><text x="117.857142857" y="316.769230769">C</text><text x="139.285714286" y="316.769230769">L</text><text x="160.714285714" y="316.769230769">O</text><text x="182.142857143" y="316.769230769">C</text><text x="203.571428571" y="316.769230769">K</text><text x="225.0" y="316.769230769">U</text><text x="246.428571429" y="316.769230769">D</text><text x="267.857142857" y="316.769230769">A</text><text x="289.285714286" y="316.769230769">M</text><text x="310.714285714" y="316.769230769">S</text><text x="332.142857143" y="316.769230769">P</text><text x="353.571428571" y="316.769230769">M</text><text x="375.0" y="316.769230769">P</text><text x="75.0" y="339.846153846">T</text><text x="96.4285714286" y="339.846153846">I</text><text x="117.857142857" y="339.846153846">M</text><text x="139.285714286" y="339.846153846">E</text><text x="160.714285714" y="339.846153846">V</text><text x="182.142857143" y="339.846153846">W</text><text x="203.571428571" y="339.846153846">T</text><text x="225.0" y="339.846153846">O</text><text x="246.428571429" y="339.846153846">C</text><text x="267.857142857" y="339.846153846">O</text><text x="289.285714286" y="339.846153846">F</text><text x="310.714285714" y="339.846153846">O</text><text x="332.142857143" y="339.846153846">R</text><text x="353.571428571" y="339.846153846">D</text><text x="375.0" y="339.846153846">F</text><text x="75.0" y="362.923076923">C</text><text x="96.4285714286" y="362.923076923">O</text><text x="117.857142857" y="362.923076923">F</text><text x="139.285714286" y="362.923076923">F</text><text x="160.714285714" y="362.923076923">E</text><text x="182.142857143" y="362.923076923">E</text><text x="203.571428571" y="362.923076923">L</text><text x="225.0" y="362.923076923">U</text><text x="246.428571429" y="362.923076923">N</text><text x="267.857142857" y="362.923076923">C</text><text x="289.285714286" y="362.923076923">H</text><text x="310.714285714" y="362.923076923">F</text><text x="332.142857143" y="362.923076923">T</text><text x="353.571428571" y="362.923076923">E</text><text x="375.0" y="362.923076923">A</text><text x="75.0" y="386.0">W</text><text x="96.4285714286" y="386.0">H</text><text x="117.857142857" y="386.0">I</text><text x="139.285714286" y="386.0">S</text><text x="160.714285714" y="386.0">K</text><text x="182.142857143" y="386.0">E</text><text x="203.571428571" y="386.0">Y</text><text x="225.0" y="386.0">U</text><text x="246.428571429" y="386.0">G</text><text x="267.857142857" y="386.0">O</text><text x="289.285714286" y="386.0">Q</text><text x="310.714285714" y="386.0">H</text><text x="332.142857143" y="386.0">O</text><text x="353.571428571" y="386.0">M</text><text x="375.0" y="386.0">E</text><circle cx="20.0" cy="20.0" fill="rgb(255,255,255)" r="2.5" /><circle cx="430.0" cy="20.0" fill="rgb(255,255,255)" r="2.5" /><circle cx="20.0" cy="430.0" fill="rgb(255,255,255)" r="2.5" /><circle cx="430.0" cy="430.0" fill="rgb(255,255,255)" r="2.5" /></g></svg>