<?xml version="1.0" encoding="utf-8" ?>
<svg baseProfile="full" height="450.0mm" version="1.1" viewBox="0 0 450.0 450.0" width="450.0mm" xmlns="http://www.w3.org/2000/svg" xmlns:ev="http://www.w3.org/2001/xml-events" xmlns:xlink="http://www.w3.org/1999/xlink"><defs /><rect fill="rgb(255,255,255)" height="100%" width="100%" x="0" y="0" /><text style="text-anchor:middle;fill:rgb(0,255,0);font-family:Arial;font-size: 10" x="225.0" y="20.0">english15x14 --- back-view --- awakes_wiring</text><g style="text-anchor:middle;fill:rgb(0,0,0);font-family:Arial;font-size:6"><line stroke="rgb(255,0,0)" x1="375.0" x2="353.571428571" y1="75.0" y2="75.0" /><line stroke="rgb(255,0,0)" x1="353.571428571" x2="332.142857143" y1="75.0" y2="75.0" /><line stroke="rgb(255,0,0)" x1="332.142857143" x2="310.714285714" y1="75.0" y2="75.0" /><line stroke="rgb(255,0,0)" x1="310.714285714" x2="289.285714286" y1="75.0" y2="75.0" /><line stroke="rgb(255,0,0)" x1="289.285714286" x2="267.857142857" y1="75.0" y2="75.0" /><line stroke="rgb(255,0,0)" x1="267.857142857" x2="246.428571429" y1="75.0" y2="75.0" /><line stroke="rgb(255,0,0)" x1="246.428571429" x2="225.0" y1="75.0" y2="75.0" /><line stroke="rgb(255,0,0)" x1="225.0" x2="203.571428571" y1="75.0" y2="75.0" /><line stroke="rgb(255,0,0)" x1="203.571428571" x2="182.142857143" y1="75.0" y2="75.0" /><line stroke="rgb(255,0,0)" x1="182.142857143" x2="160.714285714" y1="75.0" y2="75.0" /><line stroke="rgb(255,0,0)" x1="160.714285714" x2="139.285714286" y1="75.0" y2="75.0" /><line stroke="rgb(255,0,0)" x1="139.285714286" x2="117.857142857" y1="75.0" y2="75.0" /><line stroke="rgb(255,0,0)" x1="117.857142857" x2="96.4285714286" y1="75.0" y2="75.0" /><line stroke="rgb(255,0,0)" x1="96.4285714286" x2="75.0" y1="75.0" y2="75.0" /><line stroke="rgb(255,0,0)" x1="75.0" x2="375.0" y1="75.0" y2="98.0769230769" /><line stroke="rgb(255,0,0)" x1="375.0" x2="353.571428571" y1="98.0769230769" y2="98.0769230769" /><line stroke="rgb(255,0,0)" x1="353.571428571" x2="332.142857143" y1="98.0769230769" y2="98.0769230769" /><line stroke="rgb(255,0,0)" x1="332.142857143" x2="310.714285714" y1="98.0769230769" y2="98.0769230769" /><line stroke="rgb(255,0,0)" x1="310.714285714" x2="289.285714286" y1="98.0769230769" y2="98.0769230769" /><line stroke="rgb(255,0,0)" x1="289.285714286" x2="267.857142857" y1="98.0769230769" y2="98.0769230769" /><line stroke="rgb(255,0,0)" x1="267.857142857" x2="246.428571429" y1="98.0769230769" y2="98.0769230769" /><line stroke="rgb(255,0,0)" x1="246.428571429" x2="225.0" y1="98.0769230769" y2="98.0769230769" /><line stroke="rgb(255,0,0)" x1="225.0" x2="203.571428571" y1="98.0769230769" y2="98.0769230769" /><line stroke="rgb(255,0,0)" x1="203.571428571" x2="182.142857143" y1="98.0769230769" y2="98.0769230769" /><line stroke="rgb(255,0,0)" x1="182.142857143" x2="160.714285714" y1="98.0769230769" y2="98.0769230769" /><line stroke="rgb(255,0,0)" x1="160.714285714" x2="139.285714286" y1="98.0769230769" y2="98.0769230769" /><line stroke="rgb(255,0,0)" x1="139.285714286" x2="117.857142857" y1="98.0769230769" y2="98.0769230769" /><line stroke="rgb(255,0,0)" x1="117.857142857" x2="96.4285714286" y1="98.0769230769" y2="98.0769230769" /><line stroke="rgb(255,0,0)" x1="96.4285714286" x2="75.0" y1="98.0769230769" y2="98.0769230769" /><line stroke="rgb(255,0,0)" x1="75.0" x2="375.0" y1="98.0769230769" y2="121.153846154" /><line stroke="rgb(255,0,0)" x1="375.0" x2="353.571428571" y1="121.153846154" y2="121.153846154" /><line stroke="rgb(255,0,0)" x1="353.571428571" x2="332.142857143" y1="121.153846154" y2="121.153846154" /><line stroke="rgb(255,0,0)" x1="332.142857143" x2="310.714285714" y1="121.153846154" y2="121.153846154" /><line stroke="rgb(255,0,0)" x1="310.714285714" x2="289.285714286" y1="121.153846154" y2="121.153846154" /><line stroke="rgb(255,0,0)" x1="289.285714286" x2="267.857142857" y1="121.153846154" y2="121.153846154" /><line stroke="rgb(255,0,0)" x1="267.857142857" x2="246.428571429" y1="121.153846154" y2="121.153846154" /><line stroke="rgb(255,0,0)" x1="246.428571429" x2="225.0" y1="121.153846154" y2="121.153846154" /><line stroke="rgb(255,0,0)" x1="225.0" x2="203.571428571" y1="121.153846154" y2="121.153846154" /><line stroke="rgb(255,0,0)" x1="203.571428571" x2="182.142857143" y1="121.153846154" y2="121.153846154" /><line stroke="rgb(255,0,0)" x1="182.142857143" x2="160.714285714" y1="121.153846154" y2="121.153846154" /><line stroke="rgb(255,0,0)" x1="160.714285714" x2="139.285714286" y1="121.153846154" y2="121.153846154" /><line stroke="rgb(255,0,0)" x1="139.285714286" x2="117.857142857" y1="121.153846154" y2="121.153846154" /><line stroke="rgb(255,0,0)" x1="117.857142857" x2="96.4285714286" y1="121.153846154" y2="121.153846154" /><line stroke="rgb(255,0,0)" x1="96.4285714286" x2="75.0" y1="121.153846154" y2="121.153846154" /><line stroke="rgb(255,0,0)" x1="75.0" x2="375.0" y1="121.153846154" y2="144.230769231" /><line stroke="rgb(255,0,0)" x1="375.0" x2="353.571428571" y1="144.230769231" y2="144.230769231" /><line stroke="rgb(255,0,0)" x1="353.571428571" x2="332.142857143" y1="144.230769231" y2="144.230769231" /><line stroke="rgb(255,0,0)" x1="332.142857143" x2="310.714285714" y1="144.230769231" y2="144.230769231" /><line stroke="rgb(255,0,0)" x1="310.714285714" x2="289.285714286" y1="144.230769231" y2="144.230769231" /><line stroke="rgb(255,0,0)" x1="289.285714286" x2="267.857142857" y1="144.230769231" y2="144.230769231" /><line stroke="rgb(255,0,0)" x1="267.857142857" x2="246.428571429" y1="144.230769231" y2="144.230769231" /><line stroke="rgb(255,0,0)" x1="246.428571429" x2="225.0" y1="144.230769231" y2="144.230769231" /><line stroke="rgb(255,0,0)" x1="225.0" x2="203.571428571" y1="144.230769231" y2="144.230769231" /><line stroke="rgb(255,0,0)" x1="203.571428571" x2="182.142857143" y1="144.230769231" y2="144.230769231" /><line stroke="rgb(255,0,0)" x1="182.142857143" x2="160.714285714" y1="144.230769231" y2="144.230769231" /><line stroke="rgb(255,0,0)" x1="160.714285714" x2="139.285714286" y1="144.230769231" y2="144.230769231" /><line stroke="rgb(255,0,0)" x1="139.285714286" x2="117.857142857" y1="144.230769231" y2="144.230769231" /><line stroke="rgb(255,0,0)" x1="117.857142857" x2="96.4285714286" y1="144.230769231" y2="144.230769231" /><line stroke="rgb(255,0,0)" x1="96.4285714286" x2="75.0" y1="144.230769231" y2="144.230769231" /><line stroke="rgb(255,0,0)" x1="75.0" x2="375.0" y1="144.230769231" y2="167.307692308" /><line stroke="rgb(255,0,0)" x1="375.0" x2="353.571428571" y1="167.307692308" y2="167.307692308" /><line stroke="rgb(255,0,0)" x1="353.571428571" x2="332.142857143" y1="167.307692308" y2="167.307692308" /><line stroke="rgb(255,0,0)" x1="332.142857143" x2="310.714285714" y1="167.307692308" y2="167.307692308" /><line stroke="rgb(255,0,0)" x1="310.714285714" x2="289.285714286" y1="167.307692308" y2="167.307692308" /><line stroke="rgb(255,0,0)" x1="289.285714286" x2="267.857142857" y1="167.307692308" y2="167.307692308" /><line stroke="rgb(255,0,0)" x1="267.857142857" x2="246.428571429" y1="167.307692308" y2="167.307692308" /><line stroke="rgb(255,0,0)" x1="246.428571429" x2="225.0" y1="167.307692308" y2="167.307692308" /><line stroke="rgb(255,0,0)" x1="225.0" x2="203.571428571" y1="167.307692308" y2="167.307692308" /><line stroke="rgb(255,0,0)" x1="203.571428571" x2="182.142857143" y1="167.307692308" y2="167.307692308" /><line stroke="rgb(255,0,0)" x1="182.142857143" x2="160.714285714" y1="167.307692308" y2="167.307692308" /><line stroke="rgb(255,0,0)" x1="160.714285714" x2="139.285714286" y1="167.307692308" y2="167.307692308" /><line stroke="rgb(255,0,0)" x1="139.285714286" x2="117.857142857" y1="167.307692308" y2="167.307692308" /><line stroke="rgb(255,0,0)" x1="117.857142857" x2="96.4285714286" y1="167.307692308" y2="167.307692308" /><line stroke="rgb(255,0,0)" x1="96.4285714286" x2="75.0" y1="167.307692308" y2="167.307692308" /><line stroke="rgb(255,0,0)" x1="75.0" x2="375.0" y1="167.307692308" y2="190.384615385" /><line stroke="rgb(255,0,0)" x1="375.0" x2="353.571428571" y1="190.384615385" y2="190.384615385" /><line stroke="rgb(255,0,0)" x1="353.571428571" x2="332.142857143" y1="190.384615385" y2="190.384615385" /><line stroke="rgb(255,0,0)" x1="332.142857143" x2="310.714285714" y1="190.384615385" y2="190.384615385" /><line stroke="rgb(255,0,0)" x1="310.714285714" x2="289.285714286" y1="190.384615385" y2="190.384615385" /><line stroke="rgb(255,0,0)" x1="289.285714286" x2="267.857142857" y1="190.384615385" y2="190.384615385" /><line stroke="rgb(255,0,0)" x1="267.857142857" x2="246.428571429" y1="190.384615385" y2="190.384615385" /><line stroke="rgb(255,0,0)" x1="246.428571429" x2="225.0" y1="190.384615385" y2="190.384615385" /><line stroke="rgb(255,0,0)" x1="225.0" x2="203.571428571" y1="190.384615385" y2="190.384615385" /><line stroke="rgb(255,0,0)" x1="203.571428571" x2="182.142857143" y1="190.384615385" y2="190.384615385" /><line stroke="rgb(255,0,0)" x1="182.142857143" x2="160.714285714" y1="190.384615385" y2="190.384615385" /><line stroke="rgb(255,0,0)" x1="160.714285714" x2="139.285714286" y1="190.384615385" y2="190.384615385" /><line stroke="rgb(255,0,0)" x1="139.285714286" x2="117.857142857" y1="190.384615385" y2="190.384615385" /><line stroke="rgb(255,0,0)" x1="117.857142857" x2="96.4285714286" y1="190.384615385" y2="190.384615385" /><line stroke="rgb(255,0,0)" x1="96.4285714286" x2="75.0" y1="190.384615385" y2="190.384615385" /><line stroke="rgb(255,0,0)" x1="75.0" x2="375.0" y1="190.384615385" y2="213.461538462" /><line stroke="rgb(255,0,0)" x1="375.0" x2="353.571428571" y1="213.461538462" y2="213.461538462" /><line stroke="rgb(255,0,0)" x1="353.571428571" x2="332.142857143" y1="213.461538462" y2="213.461538462" /><line stroke="rgb(255,0,0)" x1="332.142857143" x2="310.714285714" y1="213.461538462" y2="213.461538462" /><line stroke="rgb(255,0,0)" x1="310.714285714" x2="289.285714286" y1="213.461538462" y2="213.461538462" /><line stroke="rgb(255,0,0)" x1="289.285714286" x2="267.857142857" y1="213.461538462" y2="213.461538462" /><line stroke="rgb(255,0,0)" x1="267.857142857" x2="246.428571429" y1="213.461538462" y2="213.461538462" /><line stroke="rgb(255,0,0)" x1="246.428571429" x2="225.0" y1="213.461538462" y2="213.461538462" /><line stroke="rgb(255,0,0)" x1="225.0" x2="203.571428571" y1="213.461538462" y2="213.461538462" /><line stroke="rgb(255,0,0)" x1="203.571428571" x2="182.142857143" y1="213.461538462" y2="213.461538462" /><line stroke="rgb(255,0,0)" x1="182.142857143" x2="160.714285714" y1="213.461538462" y2="213.461538462" /><line stroke="rgb(255,0,0)" x1="160.714285714" x2="139.285714286" y1="213.461538462" y2="213.461538462" /><line stroke="rgb(255,0,0)" x1="139.285714286" x2="117.857142857" y1="213.461538462" y2="213.461538462" /><line stroke="rgb(255,0,0)" x1="117.857142857" x2="96.4285714286" y1="213.461538462" y2="213.461538462" /><line stroke="rgb(255,0,0)" x1="96.4285714286" x2="75.0" y1="213.461538462" y2="213.461538462" /><line stroke="rgb(255,0,0)" x1="75.0" x2="375.0" y1="213.461538462" y2="236.538461538" /><line stroke="rgb(255,0,0)" x1="375.0" x2="353.571428571" y1="236.538461538" y2="236.538461538" /><line stroke="rgb(255,0,0)" x1="353.571428571" x2="332.142857143" y1="236.538461538" y2="236.538461538" /><line stroke="rgb(255,0,0)" x1="332.142857143" x2="310.714285714" y1="236.538461538" y2="236.538461538" /><line stroke="rgb(255,0,0)" x1="310.714285714" x2="289.285714286" y1="236.538461538" y2="236.538461538" /><line stroke="rgb(255,0,0)" x1="289.285714286" x2="267.857142857" y1="236.538461538" y2="236.538461538" /><line stroke="rgb(255,0,0)" x1="267.857142857" x2="246.428571429" y1="236.538461538" y2="236.538461538" /><line stroke="rgb(255,0,0)" x1="246.428571429" x2="225.0" y1="236.538461538" y2="236.538461538" /><line stroke="rgb(255,0,0)" x1="225.0" x2="203.571428571" y1="236.538461538" y2="236.538461538" /><line stroke="rgb(255,0,0)" x1="203.571428571" x2="182.142857143" y1="236.538461538" y2="236.538461538" /><line stroke="rgb(255,0,0)" x1="182.142857143" x2="160.714285714" y1="236.538461538" y2="236.538461538" /><line stroke="rgb(255,0,0)" x1="160.714285714" x2="139.285714286" y1="236.538461538" y2="236.538461538" /><line stroke="rgb(255,0,0)" x1="139.285714286" x2="117.857142857" y1="236.538461538" y2="236.538461538" /><line stroke="rgb(255,0,0)" x1="117.857142857" x2="96.4285714286" y1="236.538461538" y2="236.538461538" /><line stroke="rgb(255,0,0)" x1="96.4285714286" x2="75.0" y1="236.538461538" y2="236.538461538" /><line stroke="rgb(255,0,0)" x1="75.0" x2="375.0" y1="236.538461538" y2="259.615384615" /><line stroke="rgb(255,0,0)" x1="375.0" x2="353.571428571" y1="259.615384615" y2="259.615384615" /><line stroke="rgb(255,0,0)" x1="353.571428571" x2="332.142857143" y1="259.615384615" y2="259.615384615" /><line stroke="rgb(255,0,0)" x1="332.142857143" x2="310.714285714" y1="259.615384615" y2="259.615384615" /><line stroke="rgb(255,0,0)" x1="310.714285714" x2="289.285714286" y1="259.615384615" y2="259.615384615" /><line stroke="rgb(255,0,0)" x1="289.285714286" x2="267.857142857" y1="259.615384615" y2="259.615384615" /><line stroke="rgb(255,0,0)" x1="267.857142857" x2="246.428571429" y1="259.615384615" y2="259.615384615" /><line stroke="rgb(255,0,0)" x1="246.428571429" x2="225.0" y1="259.615384615" y2="259.615384615" /><line stroke="rgb(255,0,0)" x1="225.0" x2="203.571428571" y1="259.615384615" y2="259.615384615" /><line stroke="rgb(255,0,0)" x1="203.571428571" x2="182.142857143" y1="259.615384615" y2="259.615384615" /><line stroke="rgb(255,0,0)" x1="182.142857143" x2="160.714285714" y1="259.615384615" y2="259.615384615" /><line stroke="rgb(255,0,0)" x1="160.714285714" x2="139.285714286" y1="259.615384615" y2="259.615384615" /><line stroke="rgb(255,0,0)" x1="139.285714286" x2="117.857142857" y1="259.615384615" y2="259.615384615" /><line stroke="rgb(255,0,0)" x1="117.857142857" x2="96.4285714286" y1="259.615384615" y2="259.615384615" /><line stroke="rgb(255,0,0)" x1="96.4285714286" x2="75.0" y1="259.615384615" y2="259.615384615" /><line stroke="rgb(255,0,0)" x1="75.0" x2="375.0" y1="259.615384615" y2="282.692307692" /><line stroke="rgb(255,0,0)" x1="375.0" x2="353.571428571" y1="282.692307692" y2="282.692307692" /><line stroke="rgb(255,0,0)" x1="353.571428571" x2="332.142857143" y1="282.692307692" y2="282.692307692" /><line stroke="rgb(255,0,0)" x1="332.142857143" x2="310.714285714" y1="282.692307692" y2="282.692307692" /><line stroke="rgb(255,0,0)" x1="310.714285714" x2="289.285714286" y1="282.692307692" y2="282.692307692" /><line stroke="rgb(255,0,0)" x1="289.285714286" x2="267.857142857" y1="282.692307692" y2="282.692307692" /><line stroke="rgb(255,0,0)" x1="267.857142857" x2="246.428571429" y1="282.692307692" y2="282.692307692" /><line stroke="rgb(255,0,0)" x1="246.428571429" x2="225.0" y1="282.692307692" y2="282.692307692" /><line stroke="rgb(255,0,0)" x1="225.0" x2="203.571428571" y1="282.692307692" y2="282.692307692" /><line stroke="rgb(255,0,0)" x1="203.571428571" x2="182.142857143" y1="282.692307692" y2="282.692307692" /><line stroke="rgb(255,0,0)" x1="182.142857143" x2="160.714285714" y1="282.692307692" y2="282.692307692" /><line stroke="rgb(255,0,0)" x1="160.714285714" x2="139.285714286" y1="282.692307692" y2="282.692307692" /><line stroke="rgb(255,0,0)" x1="139.285714286" x2="117.857142857" y1="282.692307692" y2="282.692307692" /><line stroke="rgb(255,0,0)" x1="117.857142857" x2="96.4285714286" y1="282.692307692" y2="282.692307692" /><line stroke="rgb(255,0,0)" x1="96.4285714286" x2="75.0" y1="282.692307692" y2="282.692307692" /><line stroke="rgb(255,0,0)" x1="75.0" x2="375.0" y1="282.692307692" y2="305.769230769" /><line stroke="rgb(255,0,0)" x1="375.0" x2="353.571428571" y1="305.769230769" y2="305.769230769" /><line stroke="rgb(255,0,0)" x1="353.571428571" x2="332.142857143" y1="305.769230769" y2="305.769230769" /><line stroke="rgb(255,0,0)" x1="332.142857143" x2="310.714285714" y1="305.769230769" y2="305.769230769" /><line stroke="rgb(255,0,0)" x1="310.714285714" x2="289.285714286" y1="305.769230769" y2="305.769230769" /><line stroke="rgb(255,0,0)" x1="289.285714286" x2="267.857142857" y1="305.769230769" y2="305.769230769" /><line stroke="rgb(255,0,0)" x1="267.857142857" x2="246.428571429" y1="305.769230769" y2="305.769230769" /><line stroke="rgb(255,0,0)" x1="246.428571429" x2="225.0" y1="305.769230769" y2="305.769230769" /><line stroke="rgb(255,0,0)" x1="225.0" x2="203.571428571" y1="305.769230769" y2="305.769230769" /><line stroke="rgb(255,0,0)" x1="203.571428571" x2="182.142857143" y1="305.769230769" y2="305.769230769" /><line stroke="rgb(255,0,0)" x1="182.142857143" x2="160.714285714" y1="305.769230769" y2="305.769230769" /><line stroke="rgb(255,0,0)" x1="160.714285714" x2="139.285714286" y1="305.769230769" y2="305.769230769" /><line stroke="rgb(255,0,0)" x1="139.285714286" x2="117.857142857" y1="305.769230769" y2="305.769230769" /><line stroke="rgb(255,0,0)" x1="117.857142857" x2="96.4285714286" y1="305.769230769" y2="305.769230769" /><line stroke="rgb(255,0,0)" x1="96.4285714286" x2="75.0" y1="305.769230769" y2="305.769230769" /><line stroke="rgb(255,0,0)" x1="75.0" x2="375.0" y1="305.769230769" y2="328.846153846" /><line stroke="rgb(255,0,0)" x1="375.0" x2="353.571428571" y1="328.846153846" y2="328.846153846" /><line stroke="rgb(255,0,0)" x1="353.571428571" x2="332.142857143" y1="328.846153846" y2="328.846153846" /><line stroke="rgb(255,0,0)" x1="332.142857143" x2="310.714285714" y1="328.846153846" y2="328.846153846" /><line stroke="rgb(255,0,0)" x1="310.714285714" x2="289.285714286" y1="328.846153846" y2="328.846153846" /><line stroke="rgb(255,0,0)" x1="289.285714286" x2="267.857142857" y1="328.846153846" y2="328.846153846" /><line stroke="rgb(255,0,0)" x1="267.857142857" x2="246.428571429" y1="328.846153846" y2="328.846153846" /><line stroke="rgb(255,0,0)" x1="246.428571429" x2="225.0" y1="328.846153846" y2="328.846153846" /><line stroke="rgb(255,0,0)" x1="225.0" x2="203.571428571" y1="328.846153846" y2="328.846153846" /><line stroke="rgb(255,0,0)" x1="203.571428571" x2="182.142857143" y1="328.846153846" y2="328.846153846" /><line stroke="rgb(255,0,0)" x1="182.142857143" x2="160.714285714" y1="328.846153846" y2="328.846153846" /><line stroke="rgb(255,0,0)" x1="160.714285714" x2="139.285714286" y1="328.846153846" y2="328.846153846" /><line stroke="rgb(255,0,0)" x1="139.285714286" x2="117.857142857" y1="328.846153846" y2="328.846153846" /><line stroke="rgb(255,0,0)" x1="117.857142857" x2="96.4285714286" y1="328.846153846" y2="328.846153846" /><line stroke="rgb(255,0,0)" x1="96.4285714286" x2="75.0" y1="328.846153846" y2="328.846153846" /><line stroke="rgb(255,0,0)" x1="75.0" x2="375.0" y1="328.846153846" y2="351.923076923" /><line stroke="rgb(255,0,0)" x1="375.0" x2="353.571428571" y1="351.923076923" y2="351.923076923" /><line stroke="rgb(255,0,0)" x1="353.571428571" x2="332.142857143" y1="351.923076923" y2="351.923076923" /><line stroke="rgb(255,0,0)" x1="332.142857143" x2="310.714285714" y1="351.923076923" y2="351.923076923" /><line stroke="rgb(255,0,0)" x1="310.714285714" x2="289.285714286" y1="351.923076923" y2="351.923076923" /><line stroke="rgb(255,0,0)" x1="289.285714286" x2="267.857142857" y1="351.923076923" y2="351.923076923" /><line stroke="rgb(255,0,0)" x1="267.857142857" x2="246.428571429" y1="351.923076923" y2="351.923076923" /><line stroke="rgb(255,0,0)" x1="246.428571429" x2="225.0" y1="351.923076923" y2="351.923076923" /><line stroke="rgb(255,0,0)" x1="225.0" x2="203.571428571" y1="351.923076923" y2="351.923076923" /><line stroke="rgb(255,0,0)" x1="203.571428571" x2="182.142857143" y1="351.923076923" y2="351.923076923" /><line stroke="rgb(255,0,0)" x1="182.142857143" x2="160.714285714" y1="351.923076923" y2="351.923076923" /><line stroke="rgb(255,0,0)" x1="160.714285714" x2="139.285714286" y1="351.923076923" y2="351.923076923" /><line stroke="rgb(255,0,0)" x1="139.285714286" x2="117.857142857" y1="351.923076923" y2="351.923076923" /><line stroke="rgb(255,0,0)" x1="117.857142857" x2="96.4285714286" y1="351.923076923" y2="351.923076923" /><line stroke="rgb(255,0,0)" x1="96.4285714286" x2="75.0" y1="351.923076923" y2="351.923076923" /><line stroke="rgb(255,0,0)" x1="75.0" x2="375.0" y1="351.923076923" y2="375.0" /><line stroke="rgb(255,0,0)" x1="375.0" x2="353.571428571" y1="375.0" y2="375.0" /><line stroke="rgb(255,0,0)" x1="353.571428571" x2="332.142857143" y1="375.0" y2="375.0" /><line stroke="rgb(255,0,0)" x1="332.142857143" x2="310.714285714" y1="375.0" y2="375.0" /><line stroke="rgb(255,0,0)" x1="310.714285714" x2="289.285714286" y1="375.0" y2="375.0" /><line stroke="rgb(255,0,0)" x1="289.285714286" x2="267.857142857" y1="375.0" y2="375.0" /><line stroke="rgb(255,0,0)" x1="267.857142857" x2="246.428571429" y1="375.0" y2="375.0" /><line stroke="rgb(255,0,0)" x1="246.428571429" x2="225.0" y1="375.0" y2="375.0" /><line stroke="rgb(255,0,0)" x1="225.0" x2="203.571428571" y1="375.0" y2="375.0" /><line stroke="rgb(255,0,0)" x1="203.571428571" x2="182.142857143" y1="375.0" y2="375.0" /><line stroke="rgb(255,0,0)" x1="182.142857143" x2="160.714285714" y1="375.0" y2="375.0" /><line stroke="rgb(255,0,0)" x1="160.714285714" x2="139.285714286" y1="375.0" y2="375.0" /><line stroke="rgb(255,0,0)" x1="139.285714286" x2="117.857142857" y1="375.0" y2="375.0" /><line stroke="rgb(255,0,0)" x1="117.857142857" x2="96.4285714286" y1="375.0" y2="375.0" /><line stroke="rgb(255,0,0)" x1="96.4285714286" x2="75.0" y1="375.0" y2="375.0" /><line stroke="rgb(255,0,0)" x1="75.0" x2="430.0" y1="375.0" y2="20.0" /><line stroke="rgb(255,0,0)" x1="430.0" x2="20.0" y1="20.0" y2="20.0" /><line stroke="rgb(255,0,0)" x1="20.0" x2="430.0" y1="20.0" y2="430.0" /><line stroke="rgb(255,0,0)" x1="430.0" x2="20.0" y1="430.0" y2="430.0" /><text x="370.714285714" y="70.3846153846">T</text><text x="379.285714286" y="70.3846153846">0</text><text x="370.714285714" y="79.6153846154">(0,0)</text><line stroke="rgb(0,0,0)" x1="375.0" x2="375.0" y1="70.3846153846" y2="79.6153846154" /><line stroke="rgb(0,0,0)" x1="370.714285714" x2="379.285714286" y1="75.0" y2="75.0" /><text x="349.285714286" y="70.3846153846">H</text><text x="357.857142857" y="70.3846153846">1</text><text x="349.285714286" y="79.6153846154">(1,0)</text><line stroke="rgb(0,0,0)" x1="353.571428571" x2="353.571428571" y1="70.3846153846" y2="79.6153846154" /><line stroke="rgb(0,0,0)" x1="349.285714286" x2="357.857142857" y1="75.0" y2="75.0" /><text x="327.857142857" y="70.3846153846">E</text><text x="336.428571429" y="70.3846153846">2</text><text x="327.857142857" y="79.6153846154">(2,0)</text><line stroke="rgb(0,0,0)" x1="332.142857143" x2="332.142857143" y1="70.3846153846" y2="79.6153846154" /><line stroke="rgb(0,0,0)" x1="327.857142857" x2="336.428571429" y1="75.0" y2="75.0" /><text x="306.428571429" y="70.3846153846">T</text><text x="315.0" y="70.3846153846">3</text><text x="306.428571429" y="79.6153846154">(3,0)</text><line stroke="rgb(0,0,0)" x1="310.714285714" x2="310.714285714" y1="70.3846153846" y2="79.6153846154" /><line stroke="rgb(0,0,0)" x1="306.428571429" x2="315.0" y1="75.0" y2="75.0" /><text x="285.0" y="70.3846153846">G</text><text x="293.571428571" y="70.3846153846">4</text><text x="285.0" y="79.6153846154">(4,0)</text><line stroke="rgb(0,0,0)" x1="289.285714286" x2="289.285714286" y1="70.3846153846" y2="79.6153846154" /><line stroke="rgb(0,0,0)" x1="285.0" x2="293.571428571" y1="75.0" y2="75.0" /><text x="263.571428571" y="70.3846153846">T</text><text x="272.142857143" y="70.3846153846">5</text><text x="263.571428571" y="79.6153846154">(5,0)</text><line stroke="rgb(0,0,0)" x1="267.857142857" x2="267.857142857" y1="70.3846153846" y2="79.6153846154" /><line stroke="rgb(0,0,0)" x1="263.571428571" x2="272.142857143" y1="75.0" y2="75.0" /><text x="242.142857143" y="70.3846153846">I</text><text x="250.714285714" y="70.3846153846">6</text><text x="242.142857143" y="79.6153846154">(6,0)</text><line stroke="rgb(0,0,0)" x1="246.428571429" x2="246.428571429" y1="70.3846153846" y2="79.6153846154" /><line stroke="rgb(0,0,0)" x1="242.142857143" x2="250.714285714" y1="75.0" y2="75.0" /><text x="220.714285714" y="70.3846153846">M</text><text x="229.285714286" y="70.3846153846">7</text><text x="220.714285714" y="79.6153846154">(7,0)</text><line stroke="rgb(0,0,0)" x1="225.0" x2="225.0" y1="70.3846153846" y2="79.6153846154" /><line stroke="rgb(0,0,0)" x1="220.714285714" x2="229.285714286" y1="75.0" y2="75.0" /><text x="199.285714286" y="70.3846153846">E</text><text x="207.857142857" y="70.3846153846">8</text><text x="199.285714286" y="79.6153846154">(8,0)</text><line stroke="rgb(0,0,0)" x1="203.571428571" x2="203.571428571" y1="70.3846153846" y2="79.6153846154" /><line stroke="rgb(0,0,0)" x1="199.285714286" x2="207.857142857" y1="75.0" y2="75.0" /><text x="177.857142857" y="70.3846153846">P</text><text x="186.428571429" y="70.3846153846">9</text><text x="177.857142857" y="79.6153846154">(9,0)</text><line stroke="rgb(0,0,0)" x1="182.142857143" x2="182.142857143" y1="70.3846153846" y2="79.6153846154" /><line stroke="rgb(0,0,0)" x1="177.857142857" x2="186.428571429" y1="75.0" y2="75.0" /><text x="156.428571429" y="70.3846153846">L</text><text x="165.0" y="70.3846153846">10</text><text x="156.428571429" y="79.6153846154">(10,0)</text><line stroke="rgb(0,0,0)" x1="160.714285714" x2="160.714285714" y1="70.3846153846" y2="79.6153846154" /><line stroke="rgb(0,0,0)" x1="156.428571429" x2="165.0" y1="75.0" y2="75.0" /><text x="135.0" y="70.3846153846">I</text><text x="143.571428571" y="70.3846153846">11</text><text x="135.0" y="79.6153846154">(11,0)</text><line stroke="rgb(0,0,0)" x1="139.285714286" x2="139.285714286" y1="70.3846153846" y2="79.6153846154" /><line stroke="rgb(0,0,0)" x1="135.0" x2="143.571428571" y1="75.0" y2="75.0" /><text x="113.571428571" y="70.3846153846">S</text><text x="122.142857143" y="70.3846153846">12</text><text x="113.571428571" y="79.6153846154">(12,0)</text><line stroke="rgb(0,0,0)" x1="117.857142857" x2="117.857142857" y1="70.3846153846" y2="79.6153846154" /><line stroke="rgb(0,0,0)" x1="113.571428571" x2="122.142857143" y1="75.0" y2="75.0" /><text x="92.1428571429" y="70.3846153846">G</text><text x="100.714285714" y="70.3846153846">13</text><text x="92.1428571429" y="79.6153846154">(13,0)</text><line stroke="rgb(0,0,0)" x1="96.4285714286" x2="96.4285714286" y1="70.3846153846" y2="79.6153846154" /><line stroke="rgb(0,0,0)" x1="92.1428571429" x2="100.714285714" y1="75.0" y2="75.0" /><text x="70.7142857143" y="70.3846153846">I</text><text x="79.2857142857" y="70.3846153846">14</text><text x="70.7142857143" y="79.6153846154">(14,0)</text><line stroke="rgb(0,0,0)" x1="75.0" x2="75.0" y1="70.3846153846" y2="79.6153846154" /><line stroke="rgb(0,0,0)" x1="70.7142857143" x2="79.2857142857" y1="75.0" y2="75.0" /><text x="370.714285714" y="93.4615384615">Z</text><text x="379.285714286" y="93.4615384615">15</text><text x="370.714285714" y="102.692307692">(0,1)</text><line stroke="rgb(0,0,0)" x1="375.0" x2="375.0" y1="93.4615384615" y2="102.692307692" /><line stroke="rgb(0,0,0)" x1="370.714285714" x2="379.285714286" y1="98.0769230769" y2="98.0769230769" /><text x="349.285714286" y="93.4615384615">E</text><text x="357.857142857" y="93.4615384615">16</text><text x="349.285714286" y="102.692307692">(1,1)</text><line stroke="rgb(0,0,0)" x1="353.571428571" x2="353.571428571" y1="93.4615384615" y2="102.692307692" /><line stroke="rgb(0,0,0)" x1="349.285714286" x2="357.857142857" y1="98.0769230769" y2="98.0769230769" /><text x="327.857142857" y="93.4615384615">A</text><text x="336.428571429" y="93.4615384615">17</text><text x="327.857142857" y="102.692307692">(2,1)</text><line stroke="rgb(0,0,0)" x1="332.142857143" x2="332.142857143" y1="93.4615384615" y2="102.692307692" /><line stroke="rgb(0,0,0)" x1="327.857142857" x2="336.428571429" y1="98.0769230769" y2="98.0769230769" /><text x="306.428571429" y="93.4615384615">B</text><text x="315.0" y="93.4615384615">18</text><text x="306.428571429" y="102.692307692">(3,1)</text><line stroke="rgb(0,0,0)" x1="310.714285714" x2="310.714285714" y1="93.4615384615" y2="102.692307692" /><line stroke="rgb(0,0,0)" x1="306.428571429" x2="315.0" y1="98.0769230769" y2="98.0769230769" /><text x="285.0" y="93.4615384615">O</text><text x="293.571428571" y="93.4615384615">19</text><text x="285.0" y="102.692307692">(4,1)</text><line stroke="rgb(0,0,0)" x1="289.285714286" x2="289.285714286" y1="93.4615384615" y2="102.692307692" /><line stroke="rgb(0,0,0)" x1="285.0" x2="293.571428571" y1="98.0769230769" y2="98.0769230769" /><text x="263.571428571" y="93.4615384615">U</text><text x="272.142857143" y="93.4615384615">20</text><text x="263.571428571" y="102.692307692">(5,1)</text><line stroke="rgb(0,0,0)" x1="267.857142857" x2="267.857142857" y1="93.4615384615" y2="102.692307692" /><line stroke="rgb(0,0,0)" x1="263.571428571" x2="272.142857143" y1="98.0769230769" y2="98.0769230769" /><text x="242.142857143" y="93.4615384615">T</text><text x="250.714285714" y="93.4615384615">21</text><text x="242.142857143" y="102.692307692">(6,1)</text><line stroke="rgb(0,0,0)" x1="246.428571429" x2="246.428571429" y1="93.4615384615" y2="102.692307692" /><line stroke="rgb(0,0,0)" x1="242.142857143" x2="250.714285714" y1="98.0769230769" y2="98.0769230769" /><text x="220.714285714" y="93.4615384615">X</text><text x="229.285714286" y="93.4615384615">22</text><text x="220.714285714" y="102.692307692">(7,1)</text><line stroke="rgb(0,0,0)" x1="225.0" x2="225.0" y1="93.4615384615" y2="102.692307692" /><line stroke="rgb(0,0,0)" x1="220.714285714" x2="229.285714286" y1="98.0769230769" y2="98.0769230769" /><text x="199.285714286" y="93.4615384615">L</text><text x="207.857142857" y="93.4615384615">23</text><text x="199.285714286" y="102.692307692">(8,1)</text><line stroke="rgb(0,0,0)" x1="203.571428571" x2="203.571428571" y1="93.4615384615" y2="102.692307692" /><line stroke="rgb(0,0,0)" x1="199.285714286" x2="207.857142857" y1="98.0769230769" y2="98.0769230769" /><text x="177.857142857" y="93.4615384615">K</text><text x="186.428571429" y="93.4615384615">24</text><text x="177.857142857" y="102.692307692">(9,1)</text><line stroke="rgb(0,0,0)" x1="182.142857143" x2="182.142857143" y1="93.4615384615" y2="102.692307692" /><line stroke="rgb(0,0,0)" x1="177.857142857" x2="186.428571429" y1="98.0769230769" y2="98.0769230769" /><text x="156.428571429" y="93.4615384615">T</text><text x="165.0" y="93.4615384615">25</text><text x="156.428571429" y="102.692307692">(10,1)</text><line stroke="rgb(0,0,0)" x1="160.714285714" x2="160.714285714" y1="93.4615384615" y2="102.692307692" /><line stroke="rgb(0,0,0)" x1="156.428571429" x2="165.0" y1="98.0769230769" y2="98.0769230769" /><text x="135.0" y="93.4615384615">E</text><text x="143.571428571" y="93.4615384615">26</text><text x="135.0" y="102.692307692">(11,1)</text><line stroke="rgb(0,0,0)" x1="139.285714286" x2="139.285714286" y1="93.4615384615" y2="102.692307692" /><line stroke="rgb(0,0,0)" x1="135.0" x2="143.571428571" y1="98.0769230769" y2="98.0769230769" /><text x="113.571428571" y="93.4615384615">N</text><text x="122.142857143" y="93.4615384615">27</text><text x="113.571428571" y="102.692307692">(12,1)</text><line stroke="rgb(0,0,0)" x1="117.857142857" x2="117.857142857" y1="93.4615384615" y2="102.692307692" /><line stroke="rgb(0,0,0)" x1="113.571428571" x2="122.142857143" y1="98.0769230769" y2="98.0769230769" /><text x="92.1428571429" y="93.4615384615">Q</text><text x="100.714285714" y="93.4615384615">28</text><text x="92.1428571429" y="102.692307692">(13,1)</text><line stroke="rgb(0,0,0)" x1="96.4285714286" x2="96.4285714286" y1="93.4615384615" y2="102.692307692" /><line stroke="rgb(0,0,0)" x1="92.1428571429" x2="100.714285714" y1="98.0769230769" y2="98.0769230769" /><text x="70.7142857143" y="93.4615384615">P</text><text x="79.2857142857" y="93.4615384615">29</text><text x="70.7142857143" y="102.692307692">(14,1)</text><line stroke="rgb(0,0,0)" x1="75.0" x2="75.0" y1="93.4615384615" y2="102.692307692" /><line stroke="rgb(0,0,0)" x1="70.7142857143" x2="79.2857142857" y1="98.0769230769" y2="98.0769230769" /><text x="370.714285714" y="116.538461538">F</text><text x="379.285714286" y="116.538461538">30</text><text x="370.714285714" y="125.769230769">(0,2)</text><line stroke="rgb(0,0,0)" x1="375.0" x2="375.0" y1="116.538461538" y2="125.769230769" /><line stroke="rgb(0,0,0)" x1="370.714285714" x2="379.285714286" y1="121.153846154" y2="121.153846154" /><text x="349.285714286" y="116.538461538">I</text><text x="357.857142857" y="116.538461538">31</text><text x="349.285714286" y="125.769230769">(1,2)</text><line stroke="rgb(0,0,0)" x1="353.571428571" x2="353.571428571" y1="116.538461538" y2="125.769230769" /><line stroke="rgb(0,0,0)" x1="349.285714286" x2="357.857142857" y1="121.153846154" y2="121.153846154" /><text x="327.857142857" y="116.538461538">F</text><text x="336.428571429" y="116.538461538">32</text><text x="327.857142857" y="125.769230769">(2,2)</text><line stroke="rgb(0,0,0)" x1="332.142857143" x2="332.142857143" y1="116.538461538" y2="125.769230769" /><line stroke="rgb(0,0,0)" x1="327.857142857" x2="336.428571429" y1="121.153846154" y2="121.153846154" /><text x="306.428571429" y="116.538461538">T</text><text x="315.0" y="116.538461538">33</text><text x="306.428571429" y="125.769230769">(3,2)</text><line stroke="rgb(0,0,0)" x1="310.714285714" x2="310.714285714" y1="116.538461538" y2="125.769230769" /><line stroke="rgb(0,0,0)" x1="306.428571429" x2="315.0" y1="121.153846154" y2="121.153846154" /><text x="285.0" y="116.538461538">E</text><text x="293.571428571" y="116.538461538">34</text><text x="285.0" y="125.769230769">(4,2)</text><line stroke="rgb(0,0,0)" x1="289.285714286" x2="289.285714286" y1="116.538461538" y2="125.769230769" /><line stroke="rgb(0,0,0)" x1="285.0" x2="293.571428571" y1="121.153846154" y2="121.153846154" /><text x="263.571428571" y="116.538461538">E</text><text x="272.142857143" y="116.538461538">35</text><text x="263.571428571" y="125.769230769">(5,2)</text><line stroke="rgb(0,0,0)" x1="267.857142857" x2="267.857142857" y1="116.538461538" y2="125.769230769" /><line stroke="rgb(0,0,0)" x1="263.571428571" x2="272.142857143" y1="121.153846154" y2="121.153846154" /><text x="242.142857143" y="116.538461538">N</text><text x="250.714285714" y="116.538461538">36</text><text x="242.142857143" y="125.769230769">(6,2)</text><line stroke="rgb(0,0,0)" x1="246.428571429" x2="246.428571429" y1="116.538461538" y2="125.769230769" /><line stroke="rgb(0,0,0)" x1="242.142857143" x2="250.714285714" y1="121.153846154" y2="121.153846154" /><text x="220.714285714" y="116.538461538">W</text><text x="229.285714286" y="116.538461538">37</text><text x="220.714285714" y="125.769230769">(7,2)</text><line stroke="rgb(0,0,0)" x1="225.0" x2="225.0" y1="116.538461538" y2="125.769230769" /><line stroke="rgb(0,0,0)" x1="220.714285714" x2="229.285714286" y1="121.153846154" y2="121.153846154" /><text x="199.285714286" y="116.538461538">J</text><text x="207.857142857" y="116.538461538">38</text><text x="199.285714286" y="125.769230769">(8,2)</text><line stroke="rgb(0,0,0)" x1="203.571428571" x2="203.571428571" y1="116.538461538" y2="125.769230769" /><line stroke="rgb(0,0,0)" x1="199.285714286" x2="207.857142857" y1="121.153846154" y2="121.153846154" /><text x="177.857142857" y="116.538461538">F</text><text x="186.428571429" y="116.538461538">39</text><text x="177.857142857" y="125.769230769">(9,2)</text><line stroke="rgb(0,0,0)" x1="182.142857143" x2="182.142857143" y1="116.538461538" y2="125.769230769" /><line stroke="rgb(0,0,0)" x1="177.857142857" x2="186.428571429" y1="121.153846154" y2="121.153846154" /><text x="156.428571429" y="116.538461538">O</text><text x="165.0" y="116.538461538">40</text><text x="156.428571429" y="125.769230769">(10,2)</text><line stroke="rgb(0,0,0)" x1="160.714285714" x2="160.714285714" y1="116.538461538" y2="125.769230769" /><line stroke="rgb(0,0,0)" x1="156.428571429" x2="165.0" y1="121.153846154" y2="121.153846154" /><text x="135.0" y="116.538461538">R</text><text x="143.571428571" y="116.538461538">41</text><text x="135.0" y="125.769230769">(11,2)</text><line stroke="rgb(0,0,0)" x1="139.285714286" x2="139.285714286" y1="116.538461538" y2="125.769230769" /><line stroke="rgb(0,0,0)" x1="135.0" x2="143.571428571" y1="121.153846154" y2="121.153846154" /><text x="113.571428571" y="116.538461538">T</text><text x="122.142857143" y="116.538461538">42</text><text x="113.571428571" y="125.769230769">(12,2)</text><line stroke="rgb(0,0,0)" x1="117.857142857" x2="117.857142857" y1="116.538461538" y2="125.769230769" /><line stroke="rgb(0,0,0)" x1="113.571428571" x2="122.142857143" y1="121.153846154" y2="121.153846154" /><text x="92.1428571429" y="116.538461538">Y</text><text x="100.714285714" y="116.538461538">43</text><text x="92.1428571429" y="125.769230769">(13,2)</text><line stroke="rgb(0,0,0)" x1="96.4285714286" x2="96.4285714286" y1="116.538461538" y2="125.769230769" /><line stroke="rgb(0,0,0)" x1="92.1428571429" x2="100.714285714" y1="121.153846154" y2="121.153846154" /><text x="70.7142857143" y="116.538461538">B</text><text x="79.2857142857" y="116.538461538">44</text><text x="70.7142857143" y="125.769230769">(14,2)</text><line stroke="rgb(0,0,0)" x1="75.0" x2="75.0" y1="116.538461538" y2="125.769230769" /><line stroke="rgb(0,0,0)" x1="70.7142857143" x2="79.2857142857" y1="121.153846154" y2="121.153846154" /><text x="370.714285714" y="139.615384615">T</text><text x="379.285714286" y="139.615384615">45</text><text x="370.714285714" y="148.846153846">(0,3)</text><line stroke="rgb(0,0,0)" x1="375.0" x2="375.0" y1="139.615384615" y2="148.846153846" /><line stroke="rgb(0,0,0)" x1="370.714285714" x2="379.285714286" y1="144.230769231" y2="144.230769231" /><text x="349.285714286" y="139.615384615">W</text><text x="357.857142857" y="139.615384615">46</text><text x="349.285714286" y="148.846153846">(1,3)</text><line stroke="rgb(0,0,0)" x1="353.571428571" x2="353.571428571" y1="139.615384615" y2="148.846153846" /><line stroke="rgb(0,0,0)" x1="349.285714286" x2="357.857142857" y1="144.230769231" y2="144.230769231" /><text x="327.857142857" y="139.615384615">E</text><text x="336.428571429" y="139.615384615">47</text><text x="327.857142857" y="148.846153846">(2,3)</text><line stroke="rgb(0,0,0)" x1="332.142857143" x2="332.142857143" y1="139.615384615" y2="148.846153846" /><line stroke="rgb(0,0,0)" x1="327.857142857" x2="336.428571429" y1="144.230769231" y2="144.230769231" /><text x="306.428571429" y="139.615384615">N</text><text x="315.0" y="139.615384615">48</text><text x="306.428571429" y="148.846153846">(3,3)</text><line stroke="rgb(0,0,0)" x1="310.714285714" x2="310.714285714" y1="139.615384615" y2="148.846153846" /><line stroke="rgb(0,0,0)" x1="306.428571429" x2="315.0" y1="144.230769231" y2="144.230769231" /><text x="285.0" y="139.615384615">T</text><text x="293.571428571" y="139.615384615">49</text><text x="285.0" y="148.846153846">(4,3)</text><line stroke="rgb(0,0,0)" x1="289.285714286" x2="289.285714286" y1="139.615384615" y2="148.846153846" /><line stroke="rgb(0,0,0)" x1="285.0" x2="293.571428571" y1="144.230769231" y2="144.230769231" /><text x="263.571428571" y="139.615384615">Y</text><text x="272.142857143" y="139.615384615">50</text><text x="263.571428571" y="148.846153846">(5,3)</text><line stroke="rgb(0,0,0)" x1="267.857142857" x2="267.857142857" y1="139.615384615" y2="148.846153846" /><line stroke="rgb(0,0,0)" x1="263.571428571" x2="272.142857143" y1="144.230769231" y2="144.230769231" /><text x="242.142857143" y="139.615384615">H</text><text x="250.714285714" y="139.615384615">51</text><text x="242.142857143" y="148.846153846">(6,3)</text><line stroke="rgb(0,0,0)" x1="246.428571429" x2="246.428571429" y1="139.615384615" y2="148.846153846" /><line stroke="rgb(0,0,0)" x1="242.142857143" x2="250.714285714" y1="144.230769231" y2="144.230769231" /><text x="220.714285714" y="139.615384615">T</text><text x="229.285714286" y="139.615384615">52</text><text x="220.714285714" y="148.846153846">(7,3)</text><line stroke="rgb(0,0,0)" x1="225.0" x2="225.0" y1="139.615384615" y2="148.846153846" /><line stroke="rgb(0,0,0)" x1="220.714285714" x2="229.285714286" y1="144.230769231" y2="144.230769231" /><text x="199.285714286" y="139.615384615">H</text><text x="207.857142857" y="139.615384615">53</text><text x="199.285714286" y="148.846153846">(8,3)</text><line stroke="rgb(0,0,0)" x1="203.571428571" x2="203.571428571" y1="139.615384615" y2="148.846153846" /><line stroke="rgb(0,0,0)" x1="199.285714286" x2="207.857142857" y1="144.230769231" y2="144.230769231" /><text x="177.857142857" y="139.615384615">I</text><text x="186.428571429" y="139.615384615">54</text><text x="177.857142857" y="148.846153846">(9,3)</text><line stroke="rgb(0,0,0)" x1="182.142857143" x2="182.142857143" y1="139.615384615" y2="148.846153846" /><line stroke="rgb(0,0,0)" x1="177.857142857" x2="186.428571429" y1="144.230769231" y2="144.230769231" /><text x="156.428571429" y="139.615384615">R</text><text x="165.0" y="139.615384615">55</text><text x="156.428571429" y="148.846153846">(10,3)</text><line stroke="rgb(0,0,0)" x1="160.714285714" x2="160.714285714" y1="139.615384615" y2="148.846153846" /><line stroke="rgb(0,0,0)" x1="156.428571429" x2="165.0" y1="144.230769231" y2="144.230769231" /><text x="135.0" y="139.615384615">T</text><text x="143.571428571" y="139.615384615">56</text><text x="135.0" y="148.846153846">(11,3)</text><line stroke="rgb(0,0,0)" x1="139.285714286" x2="139.285714286" y1="139.615384615" y2="148.846153846" /><line stroke="rgb(0,0,0)" x1="135.0" x2="143.571428571" y1="144.230769231" y2="144.230769231" /><text x="113.571428571" y="139.615384615">Y</text><text x="122.142857143" y="139.615384615">57</text><text x="113.571428571" y="148.846153846">(12,3)</text><line stroke="rgb(0,0,0)" x1="117.857142857" x2="117.857142857" y1="139.615384615" y2="148.846153846" /><line stroke="rgb(0,0,0)" x1="113.571428571" x2="122.142857143" y1="144.230769231" y2="144.230769231" /><text x="92.1428571429" y="139.615384615">A</text><text x="100.714285714" y="139.615384615">58</text><text x="92.1428571429" y="148.846153846">(13,3)</text><line stroke="rgb(0,0,0)" x1="96.4285714286" x2="96.4285714286" y1="139.615384615" y2="148.846153846" /><line stroke="rgb(0,0,0)" x1="92.1428571429" x2="100.714285714" y1="144.230769231" y2="144.230769231" /><text x="70.7142857143" y="139.615384615">C</text><text x="79.2857142857" y="139.615384615">59</text><text x="70.7142857143" y="148.846153846">(14,3)</text><line stroke="rgb(0,0,0)" x1="75.0" x2="75.0" y1="139.615384615" y2="148.846153846" /><line stroke="rgb(0,0,0)" x1="70.7142857143" x2="79.2857142857" y1="144.230769231" y2="144.230769231" /><text x="370.714285714" y="162.692307692">F</text><text x="379.285714286" y="162.692307692">60</text><text x="370.714285714" y="171.923076923">(0,4)</text><line stroke="rgb(0,0,0)" x1="375.0" x2="375.0" y1="162.692307692" y2="171.923076923" /><line stroke="rgb(0,0,0)" x1="370.714285714" x2="379.285714286" y1="167.307692308" y2="167.307692308" /><text x="349.285714286" y="162.692307692">I</text><text x="357.857142857" y="162.692307692">61</text><text x="349.285714286" y="171.923076923">(1,4)</text><line stroke="rgb(0,0,0)" x1="353.571428571" x2="353.571428571" y1="162.692307692" y2="171.923076923" /><line stroke="rgb(0,0,0)" x1="349.285714286" x2="357.857142857" y1="167.307692308" y2="167.307692308" /><text x="327.857142857" y="162.692307692">F</text><text x="336.428571429" y="162.692307692">62</text><text x="327.857142857" y="171.923076923">(2,4)</text><line stroke="rgb(0,0,0)" x1="332.142857143" x2="332.142857143" y1="162.692307692" y2="171.923076923" /><line stroke="rgb(0,0,0)" x1="327.857142857" x2="336.428571429" y1="167.307692308" y2="167.307692308" /><text x="306.428571429" y="162.692307692">T</text><text x="315.0" y="162.692307692">63</text><text x="306.428571429" y="171.923076923">(3,4)</text><line stroke="rgb(0,0,0)" x1="310.714285714" x2="310.714285714" y1="162.692307692" y2="171.923076923" /><line stroke="rgb(0,0,0)" x1="306.428571429" x2="315.0" y1="167.307692308" y2="167.307692308" /><text x="285.0" y="162.692307692">Y</text><text x="293.571428571" y="162.692307692">64</text><text x="285.0" y="171.923076923">(4,4)</text><line stroke="rgb(0,0,0)" x1="289.285714286" x2="289.285714286" y1="162.692307692" y2="171.923076923" /><line stroke="rgb(0,0,0)" x1="285.0" x2="293.571428571" y1="167.307692308" y2="167.307692308" /><text x="263.571428571" y="162.692307692">Z</text><text x="272.142857143" y="162.692307692">65</text><text x="263.571428571" y="171.923076923">(5,4)</text><line stroke="rgb(0,0,0)" x1="267.857142857" x2="267.857142857" y1="162.692307692" y2="171.923076923" /><line stroke="rgb(0,0,0)" x1="263.571428571" x2="272.142857143" y1="167.307692308" y2="167.307692308" /><text x="242.142857143" y="162.692307692">X</text><text x="250.714285714" y="162.692307692">66</text><text x="242.142857143" y="171.923076923">(6,4)</text><line stroke="rgb(0,0,0)" x1="246.428571429" x2="246.428571429" y1="162.692307692" y2="171.923076923" /><line stroke="rgb(0,0,0)" x1="242.142857143" x2="250.714285714" y1="167.307692308" y2="167.307692308" /><text x="220.714285714" y="162.692307692">F</text><text x="229.285714286" y="162.692307692">67</text><text x="220.714285714" y="171.923076923">(7,4)</text><line stroke="rgb(0,0,0)" x1="225.0" x2="225.0" y1="162.692307692" y2="171.923076923" /><line stroke="rgb(0,0,0)" x1="220.714285714" x2="229.285714286" y1="167.307692308" y2="167.307692308" /><text x="199.285714286" y="162.692307692">I</text><text x="207.857142857" y="162.692307692">68</text><text x="199.285714286" y="171.923076923">(8,4)</text><line stroke="rgb(0,0,0)" x1="203.571428571" x2="203.571428571" y1="162.692307692" y2="171.923076923" /><line stroke="rgb(0,0,0)" x1="199.285714286" x2="207.857142857" y1="167.307692308" y2="167.307692308" /><text x="177.857142857" y="162.692307692">V</text><text x="186.428571429" y="162.692307692">69</text><text x="177.857142857" y="171.923076923">(9,4)</text><line stroke="rgb(0,0,0)" x1="182.142857143" x2="182.142857143" y1="162.692307692" y2="171.923076923" /><line stroke="rgb(0,0,0)" x1="177.857142857" x2="186.428571429" y1="167.307692308" y2="167.307692308" /><text x="156.428571429" y="162.692307692">E</text><text x="165.0" y="162.692307692">70</text><text x="156.428571429" y="171.923076923">(10,4)</text><line stroke="rgb(0,0,0)" x1="160.714285714" x2="160.714285714" y1="162.692307692" y2="171.923076923" /><line stroke="rgb(0,0,0)" x1="156.428571429" x2="165.0" y1="167.307692308" y2="167.307692308" /><text x="135.0" y="162.692307692">E</text><text x="143.571428571" y="162.692307692">71</text><text x="135.0" y="171.923076923">(11,4)</text><line stroke="rgb(0,0,0)" x1="139.285714286" x2="139.285714286" y1="162.692307692" y2="171.923076923" /><line stroke="rgb(0,0,0)" x1="135.0" x2="143.571428571" y1="167.307692308" y2="167.307692308" /><text x="113.571428571" y="162.692307692">H</text><text x="122.142857143" y="162.692307692">72</text><text x="113.571428571" y="171.923076923">(12,4)</text><line stroke="rgb(0,0,0)" x1="117.857142857" x2="117.857142857" y1="162.692307692" y2="171.923076923" /><line stroke="rgb(0,0,0)" x1="113.571428571" x2="122.142857143" y1="167.307692308" y2="167.307692308" /><text x="92.1428571429" y="162.692307692">J</text><text x="100.714285714" y="162.692307692">73</text><text x="92.1428571429" y="171.923076923">(13,4)</text><line stroke="rgb(0,0,0)" x1="96.4285714286" x2="96.4285714286" y1="162.692307692" y2="171.923076923" /><line stroke="rgb(0,0,0)" x1="92.1428571429" x2="100.714285714" y1="167.307692308" y2="167.307692308" /><text x="70.7142857143" y="162.692307692">M</text><text x="79.2857142857" y="162.692307692">74</text><text x="70.7142857143" y="171.923076923">(14,4)</text><line stroke="rgb(0,0,0)" x1="75.0" x2="75.0" y1="162.692307692" y2="171.923076923" /><line stroke="rgb(0,0,0)" x1="70.7142857143" x2="79.2857142857" y1="167.307692308" y2="167.307692308" /><text x="370.714285714" y="185.769230769">D</text><text x="379.285714286" y="185.769230769">75</text><text x="370.714285714" y="195.0">(0,5)</text><line stroke="rgb(0,0,0)" x1="375.0" x2="375.0" y1="185.769230769" y2="195.0" /><line stroke="rgb(0,0,0)" x1="370.714285714" x2="379.285714286" y1="190.384615385" y2="190.384615385" /><text x="349.285714286" y="185.769230769">M</text><text x="357.857142857" y="185.769230769">76</text><text x="349.285714286" y="195.0">(1,5)</text><line stroke="rgb(0,0,0)" x1="353.571428571" x2="353.571428571" y1="185.769230769" y2="195.0" /><line stroke="rgb(0,0,0)" x1="349.285714286" x2="357.857142857" y1="190.384615385" y2="190.384615385" /><text x="327.857142857" y="185.769230769">I</text><text x="336.428571429" y="185.769230769">77</text><text x="327.857142857" y="195.0">(2,5)</text><line stroke="rgb(0,0,0)" x1="332.142857143" x2="332.142857143" y1="185.769230769" y2="195.0" /><line stroke="rgb(0,0,0)" x1="327.857142857" x2="336.428571429" y1="190.384615385" y2="190.384615385" /><text x="306.428571429" y="185.769230769">N</text><text x="315.0" y="185.769230769">78</text><text x="306.428571429" y="195.0">(3,5)</text><line stroke="rgb(0,0,0)" x1="310.714285714" x2="310.714285714" y1="185.769230769" y2="195.0" /><line stroke="rgb(0,0,0)" x1="306.428571429" x2="315.0" y1="190.384615385" y2="190.384615385" /><text x="285.0" y="185.769230769">U</text><text x="293.571428571" y="185.769230769">79</text><text x="285.0" y="195.0">(4,5)</text><line stroke="rgb(0,0,0)" x1="289.285714286" x2="289.285714286" y1="185.769230769" y2="195.0" /><line stroke="rgb(0,0,0)" x1="285.0" x2="293.571428571" y1="190.384615385" y2="190.384615385" /><text x="263.571428571" y="185.769230769">T</text><text x="272.142857143" y="185.769230769">80</text><text x="263.571428571" y="195.0">(5,5)</text><line stroke="rgb(0,0,0)" x1="267.857142857" x2="267.857142857" y1="185.769230769" y2="195.0" /><line stroke="rgb(0,0,0)" x1="263.571428571" x2="272.142857143" y1="190.384615385" y2="190.384615385" /><text x="242.142857143" y="185.769230769">E</text><text x="250.714285714" y="185.769230769">81</text><text x="242.142857143" y="195.0">(6,5)</text><line stroke="rgb(0,0,0)" x1="246.428571429" x2="246.428571429" y1="185.769230769" y2="195.0" /><line stroke="rgb(0,0,0)" x1="242.142857143" x2="250.714285714" y1="190.384615385" y2="190.384615385" /><text x="220.714285714" y="185.769230769">S</text><text x="229.285714286" y="185.769230769">82</text><text x="220.714285714" y="195.0">(7,5)</text><line stroke="rgb(0,0,0)" x1="225.0" x2="225.0" y1="185.769230769" y2="195.0" /><line stroke="rgb(0,0,0)" x1="220.714285714" x2="229.285714286" y1="190.384615385" y2="190.384615385" /><text x="199.285714286" y="185.769230769">V</text><text x="207.857142857" y="185.769230769">83</text><text x="199.285714286" y="195.0">(8,5)</text><line stroke="rgb(0,0,0)" x1="203.571428571" x2="203.571428571" y1="185.769230769" y2="195.0" /><line stroke="rgb(0,0,0)" x1="199.285714286" x2="207.857142857" y1="190.384615385" y2="190.384615385" /><text x="177.857142857" y="185.769230769">N</text><text x="186.428571429" y="185.769230769">84</text><text x="177.857142857" y="195.0">(9,5)</text><line stroke="rgb(0,0,0)" x1="182.142857143" x2="182.142857143" y1="185.769230769" y2="195.0" /><line stroke="rgb(0,0,0)" x1="177.857142857" x2="186.428571429" y1="190.384615385" y2="190.384615385" /><text x="156.428571429" y="185.769230769">P</text><text x="165.0" y="185.769230769">85</text><text x="156.428571429" y="195.0">(10,5)</text><line stroke="rgb(0,0,0)" x1="160.714285714" x2="160.714285714" y1="185.769230769" y2="195.0" /><line stroke="rgb(0,0,0)" x1="156.428571429" x2="165.0" y1="190.384615385" y2="190.384615385" /><text x="135.0" y="185.769230769">A</text><text x="143.571428571" y="185.769230769">86</text><text x="135.0" y="195.0">(11,5)</text><line stroke="rgb(0,0,0)" x1="139.285714286" x2="139.285714286" y1="185.769230769" y2="195.0" /><line stroke="rgb(0,0,0)" x1="135.0" x2="143.571428571" y1="190.384615385" y2="190.384615385" /><text x="113.571428571" y="185.769230769">S</text><text x="122.142857143" y="185.769230769">87</text><text x="113.571428571" y="195.0">(12,5)</text><line stroke="rgb(0,0,0)" x1="117.857142857" x2="117.857142857" y1="185.769230769" y2="195.0" /><line stroke="rgb(0,0,0)" x1="113.571428571" x2="122.142857143" y1="190.384615385" y2="190.384615385" /><text x="92.1428571429" y="185.769230769">T</text><text x="100.714285714" y="185.769230769">88</text><text x="92.1428571429" y="195.0">(13,5)</text><line stroke="rgb(0,0,0)" x1="96.4285714286" x2="96.4285714286" y1="185.769230769" y2="195.0" /><line stroke="rgb(0,0,0)" x1="92.1428571429" x2="100.714285714" y1="190.384615385" y2="190.384615385" /><text x="70.7142857143" y="185.769230769">S</text><text x="79.2857142857" y="185.769230769">89</text><text x="70.7142857143" y="195.0">(14,5)</text><line stroke="rgb(0,0,0)" x1="75.0" x2="75.0" y1="185.769230769" y2="195.0" /><line stroke="rgb(0,0,0)" x1="70.7142857143" x2="79.2857142857" y1="190.384615385" y2="190.384615385" /><text x="370.714285714" y="208.846153846">O</text><text x="379.285714286" y="208.846153846">90</text><text x="370.714285714" y="218.076923077">(0,6)</text><line stroke="rgb(0,0,0)" x1="375.0" x2="375.0" y1="208.846153846" y2="218.076923077" /><line stroke="rgb(0,0,0)" x1="370.714285714" x2="379.285714286" y1="213.461538462" y2="213.461538462" /><text x="349.285714286" y="208.846153846">N</text><text x="357.857142857" y="208.846153846">91</text><text x="349.285714286" y="218.076923077">(1,6)</text><line stroke="rgb(0,0,0)" x1="353.571428571" x2="353.571428571" y1="208.846153846" y2="218.076923077" /><line stroke="rgb(0,0,0)" x1="349.285714286" x2="357.857142857" y1="213.461538462" y2="213.461538462" /><text x="327.857142857" y="208.846153846">E</text><text x="336.428571429" y="208.846153846">92</text><text x="327.857142857" y="218.076923077">(2,6)</text><line stroke="rgb(0,0,0)" x1="332.142857143" x2="332.142857143" y1="208.846153846" y2="218.076923077" /><line stroke="rgb(0,0,0)" x1="327.857142857" x2="336.428571429" y1="213.461538462" y2="213.461538462" /><text x="306.428571429" y="208.846153846">I</text><text x="315.0" y="208.846153846">93</text><text x="306.428571429" y="218.076923077">(3,6)</text><line stroke="rgb(0,0,0)" x1="310.714285714" x2="310.714285714" y1="208.846153846" y2="218.076923077" /><line stroke="rgb(0,0,0)" x1="306.428571429" x2="315.0" y1="213.461538462" y2="213.461538462" /><text x="285.0" y="208.846153846">T</text><text x="293.571428571" y="208.846153846">94</text><text x="285.0" y="218.076923077">(4,6)</text><line stroke="rgb(0,0,0)" x1="289.285714286" x2="289.285714286" y1="208.846153846" y2="218.076923077" /><line stroke="rgb(0,0,0)" x1="285.0" x2="293.571428571" y1="213.461538462" y2="213.461538462" /><text x="263.571428571" y="208.846153846">W</text><text x="272.142857143" y="208.846153846">95</text><text x="263.571428571" y="218.076923077">(5,6)</text><line stroke="rgb(0,0,0)" x1="267.857142857" x2="267.857142857" y1="208.846153846" y2="218.076923077" /><line stroke="rgb(0,0,0)" x1="263.571428571" x2="272.142857143" y1="213.461538462" y2="213.461538462" /><text x="242.142857143" y="208.846153846">O</text><text x="250.714285714" y="208.846153846">96</text><text x="242.142857143" y="218.076923077">(6,6)</text><line stroke="rgb(0,0,0)" x1="246.428571429" x2="246.428571429" y1="208.846153846" y2="218.076923077" /><line stroke="rgb(0,0,0)" x1="242.142857143" x2="250.714285714" y1="213.461538462" y2="213.461538462" /><text x="220.714285714" y="208.846153846">Y</text><text x="229.285714286" y="208.846153846">97</text><text x="220.714285714" y="218.076923077">(7,6)</text><line stroke="rgb(0,0,0)" x1="225.0" x2="225.0" y1="208.846153846" y2="218.076923077" /><line stroke="rgb(0,0,0)" x1="220.714285714" x2="229.285714286" y1="213.461538462" y2="213.461538462" /><text x="199.285714286" y="208.846153846">M</text><text x="207.857142857" y="208.846153846">98</text><text x="199.285714286" y="218.076923077">(8,6)</text><line stroke="rgb(0,0,0)" x1="203.571428571" x2="203.571428571" y1="208.846153846" y2="218.076923077" /><line stroke="rgb(0,0,0)" x1="199.285714286" x2="207.857142857" y1="213.461538462" y2="213.461538462" /><text x="177.857142857" y="208.846153846">T</text><text x="186.428571429" y="208.846153846">99</text><text x="177.857142857" y="218.076923077">(9,6)</text><line stroke="rgb(0,0,0)" x1="182.142857143" x2="182.142857143" y1="208.846153846" y2="218.076923077" /><line stroke="rgb(0,0,0)" x1="177.857142857" x2="186.428571429" y1="213.461538462" y2="213.461538462" /><text x="156.428571429" y="208.846153846">H</text><text x="165.0" y="208.846153846">100</text><text x="156.428571429" y="218.076923077">(10,6)</text><line stroke="rgb(0,0,0)" x1="160.714285714" x2="160.714285714" y1="208.846153846" y2="218.076923077" /><line stroke="rgb(0,0,0)" x1="156.428571429" x2="165.0" y1="213.461538462" y2="213.461538462" /><text x="135.0" y="208.846153846">R</text><text x="143.571428571" y="208.846153846">101</text><text x="135.0" y="218.076923077">(11,6)</text><line stroke="rgb(0,0,0)" x1="139.285714286" x2="139.285714286" y1="208.846153846" y2="218.076923077" /><line stroke="rgb(0,0,0)" x1="135.0" x2="143.571428571" y1="213.461538462" y2="213.461538462" /><text x="113.571428571" y="208.846153846">E</text><text x="122.142857143" y="208.846153846">102</text><text x="113.571428571" y="218.076923077">(12,6)</text><line stroke="rgb(0,0,0)" x1="117.857142857" x2="117.857142857" y1="208.846153846" y2="218.076923077" /><line stroke="rgb(0,0,0)" x1="113.571428571" x2="122.142857143" y1="213.461538462" y2="213.461538462" /><text x="92.1428571429" y="208.846153846">E</text><text x="100.714285714" y="208.846153846">103</text><text x="92.1428571429" y="218.076923077">(13,6)</text><line stroke="rgb(0,0,0)" x1="96.4285714286" x2="96.4285714286" y1="208.846153846" y2="218.076923077" /><line stroke="rgb(0,0,0)" x1="92.1428571429" x2="100.714285714" y1="213.461538462" y2="213.461538462" /><text x="70.7142857143" y="208.846153846">T</text><text x="79.2857142857" y="208.846153846">104</text><text x="70.7142857143" y="218.076923077">(14,6)</text><line stroke="rgb(0,0,0)" x1="75.0" x2="75.0" y1="208.846153846" y2="218.076923077" /><line stroke="rgb(0,0,0)" x1="70.7142857143" x2="79.2857142857" y1="213.461538462" y2="213.461538462" /><text x="370.714285714" y="231.923076923">F</text><text x="379.285714286" y="231.923076923">105</text><text x="370.714285714" y="241.153846154">(0,7)</text><line stroke="rgb(0,0,0)" x1="375.0" x2="375.0" y1="231.923076923" y2="241.153846154" /><line stroke="rgb(0,0,0)" x1="370.714285714" x2="379.285714286" y1="236.538461538" y2="236.538461538" /><text x="349.285714286" y="231.923076923">O</text><text x="357.857142857" y="231.923076923">106</text><text x="349.285714286" y="241.153846154">(1,7)</text><line stroke="rgb(0,0,0)" x1="353.571428571" x2="353.571428571" y1="231.923076923" y2="241.153846154" /><line stroke="rgb(0,0,0)" x1="349.285714286" x2="357.857142857" y1="236.538461538" y2="236.538461538" /><text x="327.857142857" y="231.923076923">U</text><text x="336.428571429" y="231.923076923">107</text><text x="327.857142857" y="241.153846154">(2,7)</text><line stroke="rgb(0,0,0)" x1="332.142857143" x2="332.142857143" y1="231.923076923" y2="241.153846154" /><line stroke="rgb(0,0,0)" x1="327.857142857" x2="336.428571429" y1="236.538461538" y2="236.538461538" /><text x="306.428571429" y="231.923076923">R</text><text x="315.0" y="231.923076923">108</text><text x="306.428571429" y="241.153846154">(3,7)</text><line stroke="rgb(0,0,0)" x1="310.714285714" x2="310.714285714" y1="231.923076923" y2="241.153846154" /><line stroke="rgb(0,0,0)" x1="306.428571429" x2="315.0" y1="236.538461538" y2="236.538461538" /><text x="285.0" y="231.923076923">F</text><text x="293.571428571" y="231.923076923">109</text><text x="285.0" y="241.153846154">(4,7)</text><line stroke="rgb(0,0,0)" x1="289.285714286" x2="289.285714286" y1="231.923076923" y2="241.153846154" /><line stroke="rgb(0,0,0)" x1="285.0" x2="293.571428571" y1="236.538461538" y2="236.538461538" /><text x="263.571428571" y="231.923076923">I</text><text x="272.142857143" y="231.923076923">110</text><text x="263.571428571" y="241.153846154">(5,7)</text><line stroke="rgb(0,0,0)" x1="267.857142857" x2="267.857142857" y1="231.923076923" y2="241.153846154" /><line stroke="rgb(0,0,0)" x1="263.571428571" x2="272.142857143" y1="236.538461538" y2="236.538461538" /><text x="242.142857143" y="231.923076923">V</text><text x="250.714285714" y="231.923076923">111</text><text x="242.142857143" y="241.153846154">(6,7)</text><line stroke="rgb(0,0,0)" x1="246.428571429" x2="246.428571429" y1="231.923076923" y2="241.153846154" /><line stroke="rgb(0,0,0)" x1="242.142857143" x2="250.714285714" y1="236.538461538" y2="236.538461538" /><text x="220.714285714" y="231.923076923">E</text><text x="229.285714286" y="231.923076923">112</text><text x="220.714285714" y="241.153846154">(7,7)</text><line stroke="rgb(0,0,0)" x1="225.0" x2="225.0" y1="231.923076923" y2="241.153846154" /><line stroke="rgb(0,0,0)" x1="220.714285714" x2="229.285714286" y1="236.538461538" y2="236.538461538" /><text x="199.285714286" y="231.923076923">X</text><text x="207.857142857" y="231.923076923">113</text><text x="199.285714286" y="241.153846154">(8,7)</text><line stroke="rgb(0,0,0)" x1="203.571428571" x2="203.571428571" y1="231.923076923" y2="241.153846154" /><line stroke="rgb(0,0,0)" x1="199.285714286" x2="207.857142857" y1="236.538461538" y2="236.538461538" /><text x="177.857142857" y="231.923076923">E</text><text x="186.428571429" y="231.923076923">114</text><text x="177.857142857" y="241.153846154">(9,7)</text><line stroke="rgb(0,0,0)" x1="182.142857143" x2="182.142857143" y1="231.923076923" y2="241.153846154" /><line stroke="rgb(0,0,0)" x1="177.857142857" x2="186.428571429" y1="236.538461538" y2="236.538461538" /><text x="156.428571429" y="231.923076923">L</text><text x="165.0" y="231.923076923">115</text><text x="156.428571429" y="241.153846154">(10,7)</text><line stroke="rgb(0,0,0)" x1="160.714285714" x2="160.714285714" y1="231.923076923" y2="241.153846154" /><line stroke="rgb(0,0,0)" x1="156.428571429" x2="165.0" y1="236.538461538" y2="236.538461538" /><text x="135.0" y="231.923076923">E</text><text x="143.571428571" y="231.923076923">116</text><text x="135.0" y="241.153846154">(11,7)</text><line stroke="rgb(0,0,0)" x1="139.285714286" x2="139.285714286" y1="231.923076923" y2="241.153846154" /><line stroke="rgb(0,0,0)" x1="135.0" x2="143.571428571" y1="236.538461538" y2="236.538461538" /><text x="113.571428571" y="231.923076923">V</text><text x="122.142857143" y="231.923076923">117</text><text x="113.571428571" y="241.153846154">(12,7)</text><line stroke="rgb(0,0,0)" x1="117.857142857" x2="117.857142857" y1="231.923076923" y2="241.153846154" /><line stroke="rgb(0,0,0)" x1="113.571428571" x2="122.142857143" y1="236.538461538" y2="236.538461538" /><text x="92.1428571429" y="231.923076923">E</text><text x="100.714285714" y="231.923076923">118</text><text x="92.1428571429" y="241.153846154">(13,7)</text><line stroke="rgb(0,0,0)" x1="96.4285714286" x2="96.4285714286" y1="231.923076923" y2="241.153846154" /><line stroke="rgb(0,0,0)" x1="92.1428571429" x2="100.714285714" y1="236.538461538" y2="236.538461538" /><text x="70.7142857143" y="231.923076923">N</text><text x="79.2857142857" y="231.923076923">119</text><text x="70.7142857143" y="241.153846154">(14,7)</text><line stroke="rgb(0,0,0)" x1="75.0" x2="75.0" y1="231.923076923" y2="241.153846154" /><line stroke="rgb(0,0,0)" x1="70.7142857143" x2="79.2857142857" y1="236.538461538" y2="236.538461538" /><text x="370.714285714" y="255.0">U</text><text x="379.285714286" y="255.0">120</text><text x="370.714285714" y="264.230769231">(0,8)</text><line stroke="rgb(0,0,0)" x1="375.0" x2="375.0" y1="255.0" y2="264.230769231" /><line stroke="rgb(0,0,0)" x1="370.714285714" x2="379.285714286" y1="259.615384615" y2="259.615384615" /><text x="349.285714286" y="255.0">E</text><text x="357.857142857" y="255.0">121</text><text x="349.285714286" y="264.230769231">(1,8)</text><line stroke="rgb(0,0,0)" x1="353.571428571" x2="353.571428571" y1="255.0" y2="264.230769231" /><line stroke="rgb(0,0,0)" x1="349.285714286" x2="357.857142857" y1="259.615384615" y2="259.615384615" /><text x="327.857142857" y="255.0">I</text><text x="336.428571429" y="255.0">122</text><text x="327.857142857" y="264.230769231">(2,8)</text><line stroke="rgb(0,0,0)" x1="332.142857143" x2="332.142857143" y1="255.0" y2="264.230769231" /><line stroke="rgb(0,0,0)" x1="327.857142857" x2="336.428571429" y1="259.615384615" y2="259.615384615" /><text x="306.428571429" y="255.0">G</text><text x="315.0" y="255.0">123</text><text x="306.428571429" y="264.230769231">(3,8)</text><line stroke="rgb(0,0,0)" x1="310.714285714" x2="310.714285714" y1="255.0" y2="264.230769231" /><line stroke="rgb(0,0,0)" x1="306.428571429" x2="315.0" y1="259.615384615" y2="259.615384615" /><text x="285.0" y="255.0">H</text><text x="293.571428571" y="255.0">124</text><text x="285.0" y="264.230769231">(4,8)</text><line stroke="rgb(0,0,0)" x1="289.285714286" x2="289.285714286" y1="255.0" y2="264.230769231" /><line stroke="rgb(0,0,0)" x1="285.0" x2="293.571428571" y1="259.615384615" y2="259.615384615" /><text x="263.571428571" y="255.0">T</text><text x="272.142857143" y="255.0">125</text><text x="263.571428571" y="264.230769231">(5,8)</text><line stroke="rgb(0,0,0)" x1="267.857142857" x2="267.857142857" y1="255.0" y2="264.230769231" /><line stroke="rgb(0,0,0)" x1="263.571428571" x2="272.142857143" y1="259.615384615" y2="259.615384615" /><text x="242.142857143" y="255.0">O</text><text x="250.714285714" y="255.0">126</text><text x="242.142857143" y="264.230769231">(6,8)</text><line stroke="rgb(0,0,0)" x1="246.428571429" x2="246.428571429" y1="255.0" y2="264.230769231" /><line stroke="rgb(0,0,0)" x1="242.142857143" x2="250.714285714" y1="259.615384615" y2="259.615384615" /><text x="220.714285714" y="255.0">N</text><text x="229.285714286" y="255.0">127</text><text x="220.714285714" y="264.230769231">(7,8)</text><line stroke="rgb(0,0,0)" x1="225.0" x2="225.0" y1="255.0" y2="264.230769231" /><line stroke="rgb(0,0,0)" x1="220.714285714" x2="229.285714286" y1="259.615384615" y2="259.615384615" /><text x="199.285714286" y="255.0">I</text><text x="207.857142857" y="255.0">128</text><text x="199.285714286" y="264.230769231">(8,8)</text><line stroke="rgb(0,0,0)" x1="203.571428571" x2="203.571428571" y1="255.0" y2="264.230769231" /><line stroke="rgb(0,0,0)" x1="199.285714286" x2="207.857142857" y1="259.615384615" y2="259.615384615" /><text x="177.857142857" y="255.0">N</text><text x="186.428571429" y="255.0">129</text><text x="177.857142857" y="264.230769231">(9,8)</text><line stroke="rgb(0,0,0)" x1="182.142857143" x2="182.142857143" y1="255.0" y2="264.230769231" /><line stroke="rgb(0,0,0)" x1="177.857142857" x2="186.428571429" y1="259.615384615" y2="259.615384615" /><text x="156.428571429" y="255.0">E</text><text x="165.0" y="255.0">130</text><text x="156.428571429" y="264.230769231">(10,8)</text><line stroke="rgb(0,0,0)" x1="160.714285714" x2="160.714285714" y1="255.0" y2="264.230769231" /><line stroke="rgb(0,0,0)" x1="156.428571429" x2="165.0" y1="259.615384615" y2="259.615384615" /><text x="135.0" y="255.0">P</text><text x="143.571428571" y="255.0">131</text><text x="135.0" y="264.230769231">(11,8)</text><line stroke="rgb(0,0,0)" x1="139.285714286" x2="139.285714286" y1="255.0" y2="264.230769231" /><line stroke="rgb(0,0,0)" x1="135.0" x2="143.571428571" y1="259.615384615" y2="259.615384615" /><text x="113.571428571" y="255.0">T</text><text x="122.142857143" y="255.0">132</text><text x="113.571428571" y="264.230769231">(12,8)</text><line stroke="rgb(0,0,0)" x1="117.857142857" x2="117.857142857" y1="255.0" y2="264.230769231" /><line stroke="rgb(0,0,0)" x1="113.571428571" x2="122.142857143" y1="259.615384615" y2="259.615384615" /><text x="92.1428571429" y="255.0">E</text><text x="100.714285714" y="255.0">133</text><text x="92.1428571429" y="264.230769231">(13,8)</text><line stroke="rgb(0,0,0)" x1="96.4285714286" x2="96.4285714286" y1="255.0" y2="264.230769231" /><line stroke="rgb(0,0,0)" x1="92.1428571429" x2="100.714285714" y1="259.615384615" y2="259.615384615" /><text x="70.7142857143" y="255.0">N</text><text x="79.2857142857" y="255.0">134</text><text x="70.7142857143" y="264.230769231">(14,8)</text><line stroke="rgb(0,0,0)" x1="75.0" x2="75.0" y1="255.0" y2="264.230769231" /><line stroke="rgb(0,0,0)" x1="70.7142857143" x2="79.2857142857" y1="259.615384615" y2="259.615384615" /><text x="370.714285714" y="278.076923077">S</text><text x="379.285714286" y="278.076923077">135</text><text x="370.714285714" y="287.307692308">(0,9)</text><line stroke="rgb(0,0,0)" x1="375.0" x2="375.0" y1="278.076923077" y2="287.307692308" /><line stroke="rgb(0,0,0)" x1="370.714285714" x2="379.285714286" y1="282.692307692" y2="282.692307692" /><text x="349.285714286" y="278.076923077">I</text><text x="357.857142857" y="278.076923077">136</text><text x="349.285714286" y="287.307692308">(1,9)</text><line stroke="rgb(0,0,0)" x1="353.571428571" x2="353.571428571" y1="278.076923077" y2="287.307692308" /><line stroke="rgb(0,0,0)" x1="349.285714286" x2="357.857142857" y1="282.692307692" y2="282.692307692" /><text x="327.857142857" y="278.076923077">X</text><text x="336.428571429" y="278.076923077">137</text><text x="327.857142857" y="287.307692308">(2,9)</text><line stroke="rgb(0,0,0)" x1="332.142857143" x2="332.142857143" y1="278.076923077" y2="287.307692308" /><line stroke="rgb(0,0,0)" x1="327.857142857" x2="336.428571429" y1="282.692307692" y2="282.692307692" /><text x="306.428571429" y="278.076923077">B</text><text x="315.0" y="278.076923077">138</text><text x="306.428571429" y="287.307692308">(3,9)</text><line stroke="rgb(0,0,0)" x1="310.714285714" x2="310.714285714" y1="278.076923077" y2="287.307692308" /><line stroke="rgb(0,0,0)" x1="306.428571429" x2="315.0" y1="282.692307692" y2="282.692307692" /><text x="285.0" y="278.076923077">S</text><text x="293.571428571" y="278.076923077">139</text><text x="285.0" y="287.307692308">(4,9)</text><line stroke="rgb(0,0,0)" x1="289.285714286" x2="289.285714286" y1="278.076923077" y2="287.307692308" /><line stroke="rgb(0,0,0)" x1="285.0" x2="293.571428571" y1="282.692307692" y2="282.692307692" /><text x="263.571428571" y="278.076923077">E</text><text x="272.142857143" y="278.076923077">140</text><text x="263.571428571" y="287.307692308">(5,9)</text><line stroke="rgb(0,0,0)" x1="267.857142857" x2="267.857142857" y1="278.076923077" y2="287.307692308" /><line stroke="rgb(0,0,0)" x1="263.571428571" x2="272.142857143" y1="282.692307692" y2="282.692307692" /><text x="242.142857143" y="278.076923077">V</text><text x="250.714285714" y="278.076923077">141</text><text x="242.142857143" y="287.307692308">(6,9)</text><line stroke="rgb(0,0,0)" x1="246.428571429" x2="246.428571429" y1="278.076923077" y2="287.307692308" /><line stroke="rgb(0,0,0)" x1="242.142857143" x2="250.714285714" y1="282.692307692" y2="282.692307692" /><text x="220.714285714" y="278.076923077">E</text><text x="229.285714286" y="278.076923077">142</text><text x="220.714285714" y="287.307692308">(7,9)</text><line stroke="rgb(0,0,0)" x1="225.0" x2="225.0" y1="278.076923077" y2="287.307692308" /><line stroke="rgb(0,0,0)" x1="220.714285714" x2="229.285714286" y1="282.692307692" y2="282.692307692" /><text x="199.285714286" y="278.076923077">N</text><text x="207.857142857" y="278.076923077">143</text><text x="199.285714286" y="287.307692308">(8,9)</text><line stroke="rgb(0,0,0)" x1="203.571428571" x2="203.571428571" y1="278.076923077" y2="287.307692308" /><line stroke="rgb(0,0,0)" x1="199.285714286" x2="207.857142857" y1="282.692307692" y2="282.692307692" /><text x="177.857142857" y="278.076923077">T</text><text x="186.428571429" y="278.076923077">144</text><text x="177.857142857" y="287.307692308">(9,9)</text><line stroke="rgb(0,0,0)" x1="182.142857143" x2="182.142857143" y1="278.076923077" y2="287.307692308" /><line stroke="rgb(0,0,0)" x1="177.857142857" x2="186.428571429" y1="282.692307692" y2="282.692307692" /><text x="156.428571429" y="278.076923077">W</text><text x="165.0" y="278.076923077">145</text><text x="156.428571429" y="287.307692308">(10,9)</text><line stroke="rgb(0,0,0)" x1="160.714285714" x2="160.714285714" y1="278.076923077" y2="287.307692308" /><line stroke="rgb(0,0,0)" x1="156.428571429" x2="165.0" y1="282.692307692" y2="282.692307692" /><text x="135.0" y="278.076923077">E</text><text x="143.571428571" y="278.076923077">146</text><text x="135.0" y="287.307692308">(11,9)</text><line stroke="rgb(0,0,0)" x1="139.285714286" x2="139.285714286" y1="278.076923077" y2="287.307692308" /><line stroke="rgb(0,0,0)" x1="135.0" x2="143.571428571" y1="282.692307692" y2="282.692307692" /><text x="113.571428571" y="278.076923077">L</text><text x="122.142857143" y="278.076923077">147</text><text x="113.571428571" y="287.307692308">(12,9)</text><line stroke="rgb(0,0,0)" x1="117.857142857" x2="117.857142857" y1="278.076923077" y2="287.307692308" /><line stroke="rgb(0,0,0)" x1="113.571428571" x2="122.142857143" y1="282.692307692" y2="282.692307692" /><text x="92.1428571429" y="278.076923077">V</text><text x="100.714285714" y="278.076923077">148</text><text x="92.1428571429" y="287.307692308">(13,9)</text><line stroke="rgb(0,0,0)" x1="96.4285714286" x2="96.4285714286" y1="278.076923077" y2="287.307692308" /><line stroke="rgb(0,0,0)" x1="92.1428571429" x2="100.714285714" y1="282.692307692" y2="282.692307692" /><text x="70.7142857143" y="278.076923077">E</text><text x="79.2857142857" y="278.076923077">149</text><text x="70.7142857143" y="287.307692308">(14,9)</text><line stroke="rgb(0,0,0)" x1="75.0" x2="75.0" y1="278.076923077" y2="287.307692308" /><line stroke="rgb(0,0,0)" x1="70.7142857143" x2="79.2857142857" y1="282.692307692" y2="282.692307692" /><text x="370.714285714" y="301.153846154">K</text><text x="379.285714286" y="301.153846154">150</text><text x="370.714285714" y="310.384615385">(0,10)</text><line stroke="rgb(0,0,0)" x1="375.0" x2="375.0" y1="301.153846154" y2="310.384615385" /><line stroke="rgb(0,0,0)" x1="370.714285714" x2="379.285714286" y1="305.769230769" y2="305.769230769" /><text x="349.285714286" y="301.153846154">O</text><text x="357.857142857" y="301.153846154">151</text><text x="349.285714286" y="310.384615385">(1,10)</text><line stroke="rgb(0,0,0)" x1="353.571428571" x2="353.571428571" y1="301.153846154" y2="310.384615385" /><line stroke="rgb(0,0,0)" x1="349.285714286" x2="357.857142857" y1="305.769230769" y2="305.769230769" /><text x="327.857142857" y="301.153846154">C</text><text x="336.428571429" y="301.153846154">152</text><text x="327.857142857" y="310.384615385">(2,10)</text><line stroke="rgb(0,0,0)" x1="332.142857143" x2="332.142857143" y1="301.153846154" y2="310.384615385" /><line stroke="rgb(0,0,0)" x1="327.857142857" x2="336.428571429" y1="305.769230769" y2="305.769230769" /><text x="306.428571429" y="301.153846154">L</text><text x="315.0" y="301.153846154">153</text><text x="306.428571429" y="310.384615385">(3,10)</text><line stroke="rgb(0,0,0)" x1="310.714285714" x2="310.714285714" y1="301.153846154" y2="310.384615385" /><line stroke="rgb(0,0,0)" x1="306.428571429" x2="315.0" y1="305.769230769" y2="305.769230769" /><text x="285.0" y="301.153846154">O</text><text x="293.571428571" y="301.153846154">154</text><text x="285.0" y="310.384615385">(4,10)</text><line stroke="rgb(0,0,0)" x1="289.285714286" x2="289.285714286" y1="301.153846154" y2="310.384615385" /><line stroke="rgb(0,0,0)" x1="285.0" x2="293.571428571" y1="305.769230769" y2="305.769230769" /><text x="263.571428571" y="301.153846154">C</text><text x="272.142857143" y="301.153846154">155</text><text x="263.571428571" y="310.384615385">(5,10)</text><line stroke="rgb(0,0,0)" x1="267.857142857" x2="267.857142857" y1="301.153846154" y2="310.384615385" /><line stroke="rgb(0,0,0)" x1="263.571428571" x2="272.142857143" y1="305.769230769" y2="305.769230769" /><text x="242.142857143" y="301.153846154">K</text><text x="250.714285714" y="301.153846154">156</text><text x="242.142857143" y="310.384615385">(6,10)</text><line stroke="rgb(0,0,0)" x1="246.428571429" x2="246.428571429" y1="301.153846154" y2="310.384615385" /><line stroke="rgb(0,0,0)" x1="242.142857143" x2="250.714285714" y1="305.769230769" y2="305.769230769" /><text x="220.714285714" y="301.153846154">U</text><text x="229.285714286" y="301.153846154">157</text><text x="220.714285714" y="310.384615385">(7,10)</text><line stroke="rgb(0,0,0)" x1="225.0" x2="225.0" y1="301.153846154" y2="310.384615385" /><line stroke="rgb(0,0,0)" x1="220.714285714" x2="229.285714286" y1="305.769230769" y2="305.769230769" /><text x="199.285714286" y="301.153846154">D</text><text x="207.857142857" y="301.153846154">158</text><text x="199.285714286" y="310.384615385">(8,10)</text><line stroke="rgb(0,0,0)" x1="203.571428571" x2="203.571428571" y1="301.153846154" y2="310.384615385" /><line stroke="rgb(0,0,0)" x1="199.285714286" x2="207.857142857" y1="305.769230769" y2="305.769230769" /><text x="177.857142857" y="301.153846154">A</text><text x="186.428571429" y="301.153846154">159</text><text x="177.857142857" y="310.384615385">(9,10)</text><line stroke="rgb(0,0,0)" x1="182.142857143" x2="182.142857143" y1="301.153846154" y2="310.384615385" /><line stroke="rgb(0,0,0)" x1="177.857142857" x2="186.428571429" y1="305.769230769" y2="305.769230769" /><text x="156.428571429" y="301.153846154">M</text><text x="165.0" y="301.153846154">160</text><text x="156.428571429" y="310.384615385">(10,10)</text><line stroke="rgb(0,0,0)" x1="160.714285714" x2="160.714285714" y1="301.153846154" y2="310.384615385" /><line stroke="rgb(0,0,0)" x1="156.428571429" x2="165.0" y1="305.769230769" y2="305.769230769" /><text x="135.0" y="301.153846154">S</text><text x="143.571428571" y="301.153846154">161</text><text x="135.0" y="310.384615385">(11,10)</text><line stroke="rgb(0,0,0)" x1="139.285714286" x2="139.285714286" y1="301.153846154" y2="310.384615385" /><line stroke="rgb(0,0,0)" x1="135.0" x2="143.571428571" y1="305.769230769" y2="305.769230769" /><text x="113.571428571" y="301.153846154">P</text><text x="122.142857143" y="301.153846154">162</text><text x="113.571428571" y="310.384615385">(12,10)</text><line stroke="rgb(0,0,0)" x1="117.857142857" x2="117.857142857" y1="301.153846154" y2="310.384615385" /><line stroke="rgb(0,0,0)" x1="113.571428571" x2="122.142857143" y1="305.769230769" y2="305.769230769" /><text x="92.1428571429" y="301.153846154">M</text><text x="100.714285714" y="301.153846154">163</text><text x="92.1428571429" y="310.384615385">(13,10)</text><line stroke="rgb(0,0,0)" x1="96.4285714286" x2="96.4285714286" y1="301.153846154" y2="310.384615385" /><line stroke="rgb(0,0,0)" x1="92.1428571429" x2="100.714285714" y1="305.769230769" y2="305.769230769" /><text x="70.7142857143" y="301.153846154">P</text><text x="79.2857142857" y="301.153846154">164</text><text x="70.7142857143" y="310.384615385">(14,10)</text><line stroke="rgb(0,0,0)" x1="75.0" x2="75.0" y1="301.153846154" y2="310.384615385" /><line stroke="rgb(0,0,0)" x1="70.7142857143" x2="79.2857142857" y1="305.769230769" y2="305.769230769" /><text x="370.714285714" y="324.230769231">T</text><text x="379.285714286" y="324.230769231">165</text><text x="370.714285714" y="333.461538462">(0,11)</text><line stroke="rgb(0,0,0)" x1="375.0" x2="375.0" y1="324.230769231" y2="333.461538462" /><line stroke="rgb(0,0,0)" x1="370.714285714" x2="379.285714286" y1="328.846153846" y2="328.846153846" /><text x="349.285714286" y="324.230769231">I</text><text x="357.857142857" y="324.230769231">166</text><text x="349.285714286" y="333.461538462">(1,11)</text><line stroke="rgb(0,0,0)" x1="353.571428571" x2="353.571428571" y1="324.230769231" y2="333.461538462" /><line stroke="rgb(0,0,0)" x1="349.285714286" x2="357.857142857" y1="328.846153846" y2="328.846153846" /><text x="327.857142857" y="324.230769231">M</text><text x="336.428571429" y="324.230769231">167</text><text x="327.857142857" y="333.461538462">(2,11)</text><line stroke="rgb(0,0,0)" x1="332.142857143" x2="332.142857143" y1="324.230769231" y2="333.461538462" /><line stroke="rgb(0,0,0)" x1="327.857142857" x2="336.428571429" y1="328.846153846" y2="328.846153846" /><text x="306.428571429" y="324.230769231">E</text><text x="315.0" y="324.230769231">168</text><text x="306.428571429" y="333.461538462">(3,11)</text><line stroke="rgb(0,0,0)" x1="310.714285714" x2="310.714285714" y1="324.230769231" y2="333.461538462" /><line stroke="rgb(0,0,0)" x1="306.428571429" x2="315.0" y1="328.846153846" y2="328.846153846" /><text x="285.0" y="324.230769231">V</text><text x="293.571428571" y="324.230769231">169</text><text x="285.0" y="333.461538462">(4,11)</text><line stroke="rgb(0,0,0)" x1="289.285714286" x2="289.285714286" y1="324.230769231" y2="333.461538462" /><line stroke="rgb(0,0,0)" x1="285.0" x2="293.571428571" y1="328.846153846" y2="328.846153846" /><text x="263.571428571" y="324.230769231">W</text><text x="272.142857143" y="324.230769231">170</text><text x="263.571428571" y="333.461538462">(5,11)</text><line stroke="rgb(0,0,0)" x1="267.857142857" x2="267.857142857" y1="324.230769231" y2="333.461538462" /><line stroke="rgb(0,0,0)" x1="263.571428571" x2="272.142857143" y1="328.846153846" y2="328.846153846" /><text x="242.142857143" y="324.230769231">T</text><text x="250.714285714" y="324.230769231">171</text><text x="242.142857143" y="333.461538462">(6,11)</text><line stroke="rgb(0,0,0)" x1="246.428571429" x2="246.428571429" y1="324.230769231" y2="333.461538462" /><line stroke="rgb(0,0,0)" x1="242.142857143" x2="250.714285714" y1="328.846153846" y2="328.846153846" /><text x="220.714285714" y="324.230769231">O</text><text x="229.285714286" y="324.230769231">172</text><text x="220.714285714" y="333.461538462">(7,11)</text><line stroke="rgb(0,0,0)" x1="225.0" x2="225.0" y1="324.230769231" y2="333.461538462" /><line stroke="rgb(0,0,0)" x1="220.714285714" x2="229.285714286" y1="328.846153846" y2="328.846153846" /><text x="199.285714286" y="324.230769231">C</text><text x="207.857142857" y="324.230769231">173</text><text x="199.285714286" y="333.461538462">(8,11)</text><line stroke="rgb(0,0,0)" x1="203.571428571" x2="203.571428571" y1="324.230769231" y2="333.461538462" /><line stroke="rgb(0,0,0)" x1="199.285714286" x2="207.857142857" y1="328.846153846" y2="328.846153846" /><text x="177.857142857" y="324.230769231">O</text><text x="186.428571429" y="324.230769231">174</text><text x="177.857142857" y="333.461538462">(9,11)</text><line stroke="rgb(0,0,0)" x1="182.142857143" x2="182.142857143" y1="324.230769231" y2="333.461538462" /><line stroke="rgb(0,0,0)" x1="177.857142857" x2="186.428571429" y1="328.846153846" y2="328.846153846" /><text x="156.428571429" y="324.230769231">F</text><text x="165.0" y="324.230769231">175</text><text x="156.428571429" y="333.461538462">(10,11)</text><line stroke="rgb(0,0,0)" x1="160.714285714" x2="160.714285714" y1="324.230769231" y2="333.461538462" /><line stroke="rgb(0,0,0)" x1="156.428571429" x2="165.0" y1="328.846153846" y2="328.846153846" /><text x="135.0" y="324.230769231">O</text><text x="143.571428571" y="324.230769231">176</text><text x="135.0" y="333.461538462">(11,11)</text><line stroke="rgb(0,0,0)" x1="139.285714286" x2="139.285714286" y1="324.230769231" y2="333.461538462" /><line stroke="rgb(0,0,0)" x1="135.0" x2="143.571428571" y1="328.846153846" y2="328.846153846" /><text x="113.571428571" y="324.230769231">R</text><text x="122.142857143" y="324.230769231">177</text><text x="113.571428571" y="333.461538462">(12,11)</text><line stroke="rgb(0,0,0)" x1="117.857142857" x2="117.857142857" y1="324.230769231" y2="333.461538462" /><line stroke="rgb(0,0,0)" x1="113.571428571" x2="122.142857143" y1="328.846153846" y2="328.846153846" /><text x="92.1428571429" y="324.230769231">D</text><text x="100.714285714" y="324.230769231">178</text><text x="92.1428571429" y="333.461538462">(13,11)</text><line stroke="rgb(0,0,0)" x1="96.4285714286" x2="96.4285714286" y1="324.230769231" y2="333.461538462" /><line stroke="rgb(0,0,0)" x1="92.1428571429" x2="100.714285714" y1="328.846153846" y2="328.846153846" /><text x="70.7142857143" y="324.230769231">F</text><text x="79.2857142857" y="324.230769231">179</text><text x="70.7142857143" y="333.461538462">(14,11)</text><line stroke="rgb(0,0,0)" x1="75.0" x2="75.0" y1="324.230769231" y2="333.461538462" /><line stroke="rgb(0,0,0)" x1="70.7142857143" x2="79.2857142857" y1="328.846153846" y2="328.846153846" /><text x="370.714285714" y="347.307692308">C</text><text x="379.285714286" y="347.307692308">180</text><text x="370.714285714" y="356.538461538">(0,12)</text><line stroke="rgb(0,0,0)" x1="375.0" x2="375.0" y1="347.307692308" y2="356.538461538" /><line stroke="rgb(0,0,0)" x1="370.714285714" x2="379.285714286" y1="351.923076923" y2="351.923076923" /><text x="349.285714286" y="347.307692308">O</text><text x="357.857142857" y="347.307692308">181</text><text x="349.285714286" y="356.538461538">(1,12)</text><line stroke="rgb(0,0,0)" x1="353.571428571" x2="353.571428571" y1="347.307692308" y2="356.538461538" /><line stroke="rgb(0,0,0)" x1="349.285714286" x2="357.857142857" y1="351.923076923" y2="351.923076923" /><text x="327.857142857" y="347.307692308">F</text><text x="336.428571429" y="347.307692308">182</text><text x="327.857142857" y="356.538461538">(2,12)</text><line stroke="rgb(0,0,0)" x1="332.142857143" x2="332.142857143" y1="347.307692308" y2="356.538461538" /><line stroke="rgb(0,0,0)" x1="327.857142857" x2="336.428571429" y1="351.923076923" y2="351.923076923" /><text x="306.428571429" y="347.307692308">F</text><text x="315.0" y="347.307692308">183</text><text x="306.428571429" y="356.538461538">(3,12)</text><line stroke="rgb(0,0,0)" x1="310.714285714" x2="310.714285714" y1="347.307692308" y2="356.538461538" /><line stroke="rgb(0,0,0)" x1="306.428571429" x2="315.0" y1="351.923076923" y2="351.923076923" /><text x="285.0" y="347.307692308">E</text><text x="293.571428571" y="347.307692308">184</text><text x="285.0" y="356.538461538">(4,12)</text><line stroke="rgb(0,0,0)" x1="289.285714286" x2="289.285714286" y1="347.307692308" y2="356.538461538" /><line stroke="rgb(0,0,0)" x1="285.0" x2="293.571428571" y1="351.923076923" y2="351.923076923" /><text x="263.571428571" y="347.307692308">E</text><text x="272.142857143" y="347.307692308">185</text><text x="263.571428571" y="356.538461538">(5,12)</text><line stroke="rgb(0,0,0)" x1="267.857142857" x2="267.857142857" y1="347.307692308" y2="356.538461538" /><line stroke="rgb(0,0,0)" x1="263.571428571" x2="272.142857143" y1="351.923076923" y2="351.923076923" /><text x="242.142857143" y="347.307692308">L</text><text x="250.714285714" y="347.307692308">186</text><text x="242.142857143" y="356.538461538">(6,12)</text><line stroke="rgb(0,0,0)" x1="246.428571429" x2="246.428571429" y1="347.307692308" y2="356.538461538" /><line stroke="rgb(0,0,0)" x1="242.142857143" x2="250.714285714" y1="351.923076923" y2="351.923076923" /><text x="220.714285714" y="347.307692308">U</text><text x="229.285714286" y="347.307692308">187</text><text x="220.714285714" y="356.538461538">(7,12)</text><line stroke="rgb(0,0,0)" x1="225.0" x2="225.0" y1="347.307692308" y2="356.538461538" /><line stroke="rgb(0,0,0)" x1="220.714285714" x2="229.285714286" y1="351.923076923" y2="351.923076923" /><text x="199.285714286" y="347.307692308">N</text><text x="207.857142857" y="347.307692308">188</text><text x="199.285714286" y="356.538461538">(8,12)</text><line stroke="rgb(0,0,0)" x1="203.571428571" x2="203.571428571" y1="347.307692308" y2="356.538461538" /><line stroke="rgb(0,0,0)" x1="199.285714286" x2="207.857142857" y1="351.923076923" y2="351.923076923" /><text x="177.857142857" y="347.307692308">C</text><text x="186.428571429" y="347.307692308">189</text><text x="177.857142857" y="356.538461538">(9,12)</text><line stroke="rgb(0,0,0)" x1="182.142857143" x2="182.142857143" y1="347.307692308" y2="356.538461538" /><line stroke="rgb(0,0,0)" x1="177.857142857" x2="186.428571429" y1="351.923076923" y2="351.923076923" /><text x="156.428571429" y="347.307692308">H</text><text x="165.0" y="347.307692308">190</text><text x="156.428571429" y="356.538461538">(10,12)</text><line stroke="rgb(0,0,0)" x1="160.714285714" x2="160.714285714" y1="347.307692308" y2="356.538461538" /><line stroke="rgb(0,0,0)" x1="156.428571429" x2="165.0" y1="351.923076923" y2="351.923076923" /><text x="135.0" y="347.307692308">F</text><text x="143.571428571" y="347.307692308">191</text><text x="135.0" y="356.538461538">(11,12)</text><line stroke="rgb(0,0,0)" x1="139.285714286" x2="139.285714286" y1="347.307692308" y2="356.538461538" /><line stroke="rgb(0,0,0)" x1="135.0" x2="143.571428571" y1="351.923076923" y2="351.923076923" /><text x="113.571428571" y="347.307692308">T</text><text x="122.142857143" y="347.307692308">192</text><text x="113.571428571" y="356.538461538">(12,12)</text><line stroke="rgb(0,0,0)" x1="117.857142857" x2="117.857142857" y1="347.307692308" y2="356.538461538" /><line stroke="rgb(0,0,0)" x1="113.571428571" x2="122.142857143" y1="351.923076923" y2="351.923076923" /><text x="92.1428571429" y="347.307692308">E</text><text x="100.714285714" y="347.307692308">193</text><text x="92.1428571429" y="356.538461538">(13,12)</text><line stroke="rgb(0,0,0)" x1="96.4285714286" x2="96.4285714286" y1="347.307692308" y2="356.538461538" /><line stroke="rgb(0,0,0)" x1="92.1428571429" x2="100.714285714" y1="351.923076923" y2="351.923076923" /><text x="70.7142857143" y="347.307692308">A</text><text x="79.2857142857" y="347.307692308">194</text><text x="70.7142857143" y="356.538461538">(14,12)</text><line stroke="rgb(0,0,0)" x1="75.0" x2="75.0" y1="347.307692308" y2="356.538461538" /><line stroke="rgb(0,0,0)" x1="70.7142857143" x2="79.2857142857" y1="351.923076923" y2="351.923076923" /><text x="370.714285714" y="370.384615385">W</text><text x="379.285714286" y="370.384615385">195</text><text x="370.714285714" y="379.615384615">(0,13)</text><line stroke="rgb(0,0,0)" x1="375.0" x2="375.0" y1="370.384615385" y2="379.615384615" /><line stroke="rgb(0,0,0)" x1="370.714285714" x2="379.285714286" y1="375.0" y2="375.0" /><text x="349.285714286" y="370.384615385">H</text><text x="357.857142857" y="370.384615385">196</text><text x="349.285714286" y="379.615384615">(1,13)</text><line stroke="rgb(0,0,0)" x1="353.571428571" x2="353.571428571" y1="370.384615385" y2="379.615384615" /><line stroke="rgb(0,0,0)" x1="349.285714286" x2="357.857142857" y1="375.0" y2="375.0" /><text x="327.857142857" y="370.384615385">I</text><text x="336.428571429" y="370.384615385">197</text><text x="327.857142857" y="379.615384615">(2,13)</text><line stroke="rgb(0,0,0)" x1="332.142857143" x2="332.142857143" y1="370.384615385" y2="379.615384615" /><line stroke="rgb(0,0,0)" x1="327.857142857" x2="336.428571429" y1="375.0" y2="375.0" /><text x="306.428571429" y="370.384615385">S</text><text x="315.0" y="370.384615385">198</text><text x="306.428571429" y="379.615384615">(3,13)</text><line stroke="rgb(0,0,0)" x1="310.714285714" x2="310.714285714" y1="370.384615385" y2="379.615384615" /><line stroke="rgb(0,0,0)" x1="306.428571429" x2="315.0" y1="375.0" y2="375.0" /><text x="285.0" y="370.384615385">K</text><text x="293.571428571" y="370.384615385">199</text><text x="285.0" y="379.615384615">(4,13)</text><line stroke="rgb(0,0,0)" x1="289.285714286" x2="289.285714286" y1="370.384615385" y2="379.615384615" /><line stroke="rgb(0,0,0)" x1="285.0" x2="293.571428571" y1="375.0" y2="375.0" /><text x="263.571428571" y="370.384615385">E</text><text x="272.142857143" y="370.384615385">200</text><text x="263.571428571" y="379.615384615">(5,13)</text><line stroke="rgb(0,0,0)" x1="267.857142857" x2="267.857142857" y1="370.384615385" y2="379.615384615" /><line stroke="rgb(0,0,0)" x1="263.571428571" x2="272.142857143" y1="375.0" y2="375.0" /><text x="242.142857143" y="370.384615385">Y</text><text x="250.714285714" y="370.384615385">201</text><text x="242.142857143" y="379.615384615">(6,13)</text><line stroke="rgb(0,0,0)" x1="246.428571429" x2="246.428571429" y1="370.384615385" y2="379.615384615" /><line stroke="rgb(0,0,0)" x1="242.142857143" x2="250.714285714" y1="375.0" y2="375.0" /><text x="220.714285714" y="370.384615385">U</text><text x="229.285714286" y="370.384615385">202</text><text x="220.714285714" y="379.615384615">(7,13)</text><line stroke="rgb(0,0,0)" x1="225.0" x2="225.0" y1="370.384615385" y2="379.615384615" /><line stroke="rgb(0,0,0)" x1="220.714285714" x2="229.285714286" y1="375.0" y2="375.0" /><text x="199.285714286" y="370.384615385">G</text><text x="207.857142857" y="370.384615385">203</text><text x="199.285714286" y="379.615384615">(8,13)</text><line stroke="rgb(0,0,0)" x1="203.571428571" x2="203.571428571" y1="370.384615385" y2="379.615384615" /><line stroke="rgb(0,0,0)" x1="199.285714286" x2="207.857142857" y1="375.0" y2="375.0" /><text x="177.857142857" y="370.384615385">O</text><text x="186.428571429" y="370.384615385">204</text><text x="177.857142857" y="379.615384615">(9,13)</text><line stroke="rgb(0,0,0)" x1="182.142857143" x2="182.142857143" y1="370.384615385" y2="379.615384615" /><line stroke="rgb(0,0,0)" x1="177.857142857" x2="186.428571429" y1="375.0" y2="375.0" /><text x="156.428571429" y="370.384615385">Q</text><text x="165.0" y="370.384615385">205</text><text x="156.428571429" y="379.615384615">(10,13)</text><line stroke="rgb(0,0,0)" x1="160.714285714" x2="160.714285714" y1="370.384615385" y2="379.615384615" /><line stroke="rgb(0,0,0)" x1="156.428571429" x2="165.0" y1="375.0" y2="375.0" /><text x="135.0" y="370.384615385">H</text><text x="143.571428571" y="370.384615385">206</text><text x="135.0" y="379.615384615">(11,13)</text><line stroke="rgb(0,0,0)" x1="139.285714286" x2="139.285714286" y1="370.384615385" y2="379.615384615" /><line stroke="rgb(0,0,0)" x1="135.0" x2="143.571428571" y1="375.0" y2="375.0" /><text x="113.571428571" y="370.384615385">O</text><text x="122.142857143" y="370.384615385">207</text><text x="113.571428571" y="379.615384615">(12,13)</text><line stroke="rgb(0,0,0)" x1="117.857142857" x2="117.857142857" y1="370.384615385" y2="379.615384615" /><line stroke="rgb(0,0,0)" x1="113.571428571" x2="122.142857143" y1="375.0" y2="375.0" /><text x="92.1428571429" y="370.384615385">M</text><text x="100.714285714" y="370.384615385">208</text><text x="92.1428571429" y="379.615384615">(13,13)</text><line stroke="rgb(0,0,0)" x1="96.4285714286" x2="96.4285714286" y1="370.384615385" y2="379.615384615" /><line stroke="rgb(0,0,0)" x1="92.1428571429" x2="100.714285714" y1="375.0" y2="375.0" /><text x="70.7142857143" y="370.384615385">E</text><text x="79.2857142857" y="370.384615385">209</text><text x="70.7142857143" y="379.615384615">(14,13)</text><line stroke="rgb(0,0,0)" x1="75.0" x2="75.0" y1="370.384615385" y2="379.615384615" /><line stroke="rgb(0,0,0)" x1="70.7142857143" x2="79.2857142857" y1="375.0" y2="375.0" /><text fill="rgb(0,0,0)" x="425.714285714" y="15.3846153846">1</text><line stroke="rgb(0,0,0)" x1="430.0" x2="430.0" y1="15.3846153846" y2="24.6153846154" /><line stroke="rgb(0,0,0)" x1="425.714285714" x2="434.285714286" y1="20.0" y2="20.0" /><text fill="rgb(0,0,0)" x="15.7142857143" y="15.3846153846">2</text><line stroke="rgb(0,0,0)" x1="20.0" x2="20.0" y1="15.3846153846" y2="24.6153846154" /><line stroke="rgb(0,0,0)" x1="15.7142857143" x2="24.2857142857" y1="20.0" y2="20.0" /><text fill="rgb(0,0,0)" x="425.714285714" y="425.384615385">3</text><line stroke="rgb(0,0,0)" x1="430.0" x2="430.0" y1="425.384615385" y2="434.615384615" /><line stroke="rgb(0,0,0)" x1="425.714285714" x2="434.285714286" y1="430.0" y2="430.0" /><text fill="rgb(0,0,0)" x="15.7142857143" y="425.384615385">4</text><line stroke="rgb(0,0,0)" x1="20.0" x2="20.0" y1="425.384615385" y2="434.615384615" /><line stroke="rgb(0,0,0)" x1="15.7142857143" x2="24.2857142857" y1="430.0" y2="430.0" /></g></svg>